<svg width="59" height="62" viewBox="0 0 59 62" fill="none" xmlns="http://www.w3.org/2000/svg">
<path d="M13.0599 61.7503C13.0599 61.0303 12.9799 60.7103 12.6599 60.7103L10.8199 61.5903C10.8199 61.1903 10.5799 60.9503 10.1799 60.7903L9.53992 60.7103C8.97992 60.7103 8.73992 60.7903 7.93992 61.2703C7.69992 60.7903 7.37992 60.2303 7.13992 59.7503C5.05992 55.7503 2.89992 49.7503 1.93992 47.1103C1.45992 45.7503 0.979922 42.9503 0.419922 38.7103C1.05992 39.1103 1.53992 39.2703 1.77992 39.2703C2.09992 39.2703 2.49992 38.7103 2.81992 37.5903C2.97992 37.8303 3.29992 37.9103 3.69992 37.9103C3.93992 37.9103 4.25992 37.8303 4.41992 37.5903L5.69992 35.6703L7.13992 36.1503H7.21992C7.37992 36.1503 7.61992 35.9103 8.01992 35.6703C8.41992 35.4303 8.73992 35.2703 8.97992 35.2703L9.21992 35.3503C10.4999 35.9903 11.3799 37.1103 11.7799 38.8703C12.7399 42.9503 13.6199 44.9503 14.6599 44.9503C15.5399 44.9503 16.7399 43.9103 18.0199 41.9103C19.2999 39.9103 20.5799 37.1903 22.0199 33.9103C22.0999 34.5503 22.1799 34.8703 22.3399 34.8703C22.8199 34.8703 24.0199 32.0703 26.9799 27.3503C31.3799 20.2303 42.2599 6.55033 45.0599 4.63033C47.1399 3.19033 48.7399 1.83033 49.8599 0.630328C49.6999 1.43033 49.5399 1.99033 49.5399 2.23033C49.5399 2.47033 49.6999 2.55033 49.8599 2.55033L52.0999 1.43033V1.75033C52.0999 2.15033 52.1799 2.39033 52.4199 2.39033C52.7399 2.39033 54.0199 1.11033 54.1799 0.630328L54.0199 1.75033L56.7399 0.15033L56.0999 1.59033C56.8999 1.03033 57.5399 0.710327 57.9399 0.710327C58.3399 0.710327 58.5799 1.35033 58.5799 1.75033C58.5799 2.39033 58.0199 3.27033 57.1399 4.39033C56.1799 5.67033 53.7799 8.15033 46.5799 16.3903C43.4599 19.9103 29.6199 38.7103 26.9799 43.1903L22.0199 51.5903C19.8599 55.1903 18.4999 57.5103 17.7799 58.3903C17.0599 59.2703 16.1799 60.1503 15.1399 60.9503L14.4199 60.5503L13.7799 60.9503L13.0599 61.7503Z" fill="#BF97FF"/>
</svg>
