<?xml version="1.0" encoding="UTF-8"?>
<svg id="Layer_1" data-name="Layer 1" xmlns="http://www.w3.org/2000/svg" version="1.1" xmlns:xlink="http://www.w3.org/1999/xlink" viewBox="0 0 233 39">
  <defs>
    <style>
      .cls-1 {
        fill: none;
        stroke: #d4feb3;
        stroke-linejoin: round;
        stroke-width: 4px;
      }

      .cls-2 {
        mask: url(#mask-10);
      }

      .cls-3 {
        fill: #000;
      }

      .cls-3, .cls-4, .cls-5, .cls-6 {
        stroke-width: 0px;
      }

      .cls-7 {
        mask: url(#mask-2);
      }

      .cls-8 {
        mask: url(#mask-3);
      }

      .cls-9 {
        mask: url(#mask-9);
      }

      .cls-10 {
        mask: url(#mask-5);
      }

      .cls-11 {
        mask: url(#mask-8);
      }

      .cls-12 {
        mask: url(#mask-4);
      }

      .cls-4 {
        fill: #6b24df;
      }

      .cls-13 {
        mask: url(#mask-6);
      }

      .cls-5 {
        fill: #fff;
      }

      .cls-14 {
        mask: url(#mask-1);
      }

      .cls-15 {
        mask: url(#mask);
      }

      .cls-6 {
        fill: #bf97ff;
      }

      .cls-16 {
        mask: url(#mask-7);
      }
    </style>
    <mask id="mask" x="-1" y=".9" width="233" height="35" maskUnits="userSpaceOnUse">
      <g id="path-2-outside-2_1133_2483" data-name="path-2-outside-2 1133 2483">
        <rect class="cls-5" x="-1" y=".9" width="233" height="35"/>
        <path class="cls-3" d="M26.8,20.3c.8.9.7,2.7-.2,4.7-1.4,3.2-4.9,6.7-9.1,6.7h0c-4.9,0-5.8-5.5-5.9-8.8,0-.9,0-1.5,0-1.5,0-.3-.2-.4-.5-.4s-.4.2-.5.4c0,0,0,.6,0,1.5-.1,2.3-.8,7.7-4.6,7.7s-.4,0-.6,0c-3.5-.4-3.6-5.8-3.4-8.1.5-7.3,4.5-16.8,8.2-16.8s.3,0,.5,0c1.2.3,2.1.9,2.6,1.9,1.6,3.3-1.2,9.5-1.3,9.6-.1.3,0,.5.2.6.2,0,.5,0,.6-.2,1.7-3.1,7-11.2,10.5-11.2s1.4.4,2,1.3c.6,1,.7,2,.4,2.9-1.1,3.3-6.7,6.1-10,7.4l-2.5.9c-.2.1-.3.4-.2.6,0,.2.3.3.6.3l2.4-.9c1.4-.4,3-.5,4.5-.5,3,0,5.3.7,6.4,1.9Z"/>
        <path class="cls-3" d="M49.8,16.1c.8,4.6.2,8.4-1.5,10.4-.8,1-1.9,1.4-3.1,1.4-4.3,0-4.4-6.7-4.4-6.8,0-.2-.2-.4-.4-.4-.3,0-.4,0-.5.3,0,0-1.7,6-4.4,8.4-.8.7-1.8,1.2-2.8,1.2-2.1,0-4.5-1.9-4.5-7s1.6-8.1,4.2-12.1c2.5-3.9,5.4-6.3,7.5-6.3,4.5,0,8.9,4.8,9.9,10.9ZM41.2,17.7l.6-5.3c0-.3-.2-.5-.4-.5-.3,0-.5.2-.5.4l-.6,5.3c0,.3.2.5.4.5h0c.2,0,.4-.2.4-.4Z"/>
        <path class="cls-3" d="M62.7,5.5c.6,1.2.6,2.7.2,4.2-.2.7-.5,1.3-.9,1.9-1.2-2-2.8-3.1-4.9-3.1s-1.6.2-2.4.4c-.4.1-.7.3-1,.5,0-.8,0-1.6.3-2.3.7-2.4,2.7-4.1,4.9-4.1s.8,0,1.2.2c1.2.4,2.1,1.2,2.7,2.4ZM61.3,12.3c-.9.9-2.1,1.4-3.3,1.4s-.8,0-1.2-.2c-1.5-.4-2.6-1.7-3-3.3.4-.3.7-.4,1.1-.6.8-.3,1.5-.4,2.1-.4,2,0,3.4,1.3,4.2,3ZM62.8,18.7c.4,6.9-2,14-4.8,14.3,0,0-.2,0-.3,0-2.5,0-5.2-4.5-6.2-10.5-.7-4.4-.4-9.2,1.6-11.6.6,1.6,1.8,2.9,3.5,3.4.4.1.9.2,1.4.2,1.4,0,2.7-.5,3.7-1.5.8,2.1,1,4.4,1.1,5.5Z"/>
        <path class="cls-3" d="M85,11.1c1.8,3.6,1.3,9.4-1.2,13.6-1.9,3.2-4.6,5.1-7.8,5.3-1.8.1-3.1-.4-4-1.5-2.7-3.4-.4-11.2-.4-11.2.2-.7-.6-.7-1-.4-2.9,2.2-5.2,2.6-6.4,1.2-1.5-1.9-.9-6.7,2-9.4,2.5-2.3,6.9-3.3,11.1-2.5,3.6.7,6.4,2.5,7.6,5ZM76.3,21.8l.6-5.3c0-.3-.2-.5-.4-.5-.3,0-.5.2-.5.4l-.6,5.3c0,.3.2.5.4.5h0c.2,0,.4-.2.4-.4Z"/>
        <path class="cls-3" d="M102.7,9.9c.9,4.2-1,12.8-4.9,17.6-1.7,2.1-3.5,3.2-5.4,3.2s-2.1-.4-3.2-1c-3.7-2.3-3.5-6.6-2.7-9.8,1.7-6.8,7.6-14.3,11.5-14.6h.1c.8,0,3.6.3,4.5,4.6ZM95,21.5l.6-5.3c0-.3-.2-.5-.4-.5s-.5.2-.5.4l-.6,5.3c0,.3.1.5.4.5h0c.2,0,.4-.2.5-.4Z"/>
        <path class="cls-3" d="M119.9,14c1.5-.6,3.7-1.1,6.7-.8-1.3,1.2-3,1.9-4.5,1.9-1,0-1.7-.4-2-1,0,0,0,0,0,0ZM132.9,17.7c.8,3.7-1.7,8.7-5.4,11.1-3.5,2.3-8.5,2.3-11.3.2-1.3-1-2.6-2.9-1.3-6.3.7-1.9,1.8-3.1,3.1-3.9l.4-.2c3.6-1.9,8.2-.5,8.5-.4.3,0,.5,0,.6-.3,0-.3,0-.5-.3-.6,0,0-5.4-1.6-9.5.6-.6.4-3.3,1.1-5,0-1-.6-1.5-1.9-1.6-3.6-.3-4.8,3.8-8.2,7.6-9.8,3.9-1.6,7.8-1.5,9.3.2,1.4,1.5,1.6,3.6.6,5.8-.3.7-.7,1.3-1.2,1.9-3.4-.4-6,0-7.7.7-.2-1.5.5-3.4.9-4.1,0-.3,0-.5-.2-.6-.2,0-.5,0-.6.2l-3.7,7c-.1.2,0,.5.2.6.2.1.4,0,.6-.1,0,0,.7-.9,2.2-1.6,0,0,0,.1,0,.2.5.9,1.5,1.4,2.8,1.4,2,0,4.2-.9,5.8-2.6.1,0,.3,0,.4,0,2.7.4,4.3,1.9,4.8,4.2Z"/>
        <path class="cls-3" d="M153,7.8c1,2.4,0,5.9-1.6,7.7-.8,1-2,1.5-3.4,1.5s-3.4-.8-3.4-.8c-.2,0-.4,0-.5,0-.2.2-.2.4,0,.6,0,0,1.7,2.6,3.7,8.5.4,1.2.3,2.2-.4,3.1-.9,1.3-3,2.1-5.3,2.1s-4-.8-4.8-2c-2.4-3.8.9-11.5.9-11.6,0-.2,0-.4,0-.5,0,0-.2-.2-.3-.2h-.2c-.9.3-1.6.4-2.2.4s-1.5-.2-2-.7c-1.2-1.3-1.1-4.2-.9-6.9.3-3.5,5.7-4.2,10.2-4.2s5.1.2,6.8.4c1.7.2,2.9,1,3.4,2.4Z"/>
        <path class="cls-3" d="M175.1,14.5c.6,6.6-1.7,11.7-4.1,14.3-1.2,1.3-2.5,2.1-3.5,2-.6,0-1.1-.3-1.4-.7-1-1.2-.8-3.6-.8-3.7,0-.2-.1-.4-.3-.5,0,0,0,0-.2,0-.2,0-.3,0-.4.3,0,0-1.9,3.3-4.7,4.1-4,1.2-6.5-1.4-7-5.5-.5-4.5.9-13.8,4.1-17.4.9-1,1.9-1.4,2.9-1.3,4,.6,2.9,11.9,2.4,15.4-.2,1.3-.3,2.1-.3,2.1,0,.3.1.5.4.5.3,0,.5-.2.5-.4,0,0,0-.9.3-2.1.5-3,1.5-8.5,3-11.1,1-1.7,2.9-3,4.6-3,2.5,0,4.1,2.5,4.5,7Z"/>
        <path class="cls-3" d="M197.7,11.1c1.8,3.6,1.3,9.4-1.2,13.6-1.9,3.2-4.6,5.1-7.8,5.3-1.8.1-3.1-.4-4-1.5-2.7-3.4-.4-11.2-.4-11.2.2-.7-.6-.7-1-.4-2.9,2.2-5.2,2.6-6.4,1.2-1.5-1.9-.9-6.7,2-9.4,2.5-2.3,6.9-3.3,11.1-2.5,3.6.7,6.4,2.5,7.6,5ZM189.1,21.8l.6-5.3c0-.3-.2-.5-.4-.5-.3,0-.5.2-.5.4l-.6,5.3c0,.3.2.5.4.5h0c.2,0,.4-.2.4-.4Z"/>
        <path class="cls-3" d="M211.6,5.5c.6,1.2.6,2.7.2,4.2-.2.7-.5,1.3-.9,1.9-1.2-2-2.8-3.1-4.9-3.1s-1.6.2-2.4.4c-.4.1-.7.3-1,.5,0-.8,0-1.6.3-2.3.7-2.4,2.7-4.1,4.9-4.1s.8,0,1.2.2c1.2.4,2.1,1.2,2.7,2.4ZM210.3,12.3c-.9.9-2.1,1.4-3.3,1.4s-.8,0-1.2-.2c-1.5-.4-2.6-1.7-3-3.3.4-.3.7-.4,1.1-.6.8-.3,1.5-.4,2.1-.4,2,0,3.4,1.3,4.2,3ZM211.8,18.7c.4,6.9-2,14-4.8,14.3,0,0-.2,0-.3,0-2.5,0-5.2-4.5-6.2-10.5-.7-4.4-.4-9.2,1.6-11.6.6,1.6,1.8,2.9,3.5,3.4.4.1.9.2,1.4.2,1.4,0,2.7-.5,3.7-1.5.8,2.1,1,4.4,1.1,5.5Z"/>
        <path class="cls-3" d="M229.3,9.9c.9,4.2-1,12.8-4.9,17.6-1.7,2.1-3.5,3.2-5.4,3.2s-2.1-.4-3.2-1c-3.7-2.3-3.5-6.6-2.7-9.8,1.7-6.8,7.6-14.3,11.5-14.6h.1c.8,0,3.6.3,4.5,4.6ZM221.6,21.5l.6-5.3c0-.3-.2-.5-.4-.5-.3,0-.5.2-.5.4l-.6,5.3c0,.3.1.5.4.5h0c.2,0,.4-.2.5-.4Z"/>
      </g>
    </mask>
    <mask id="mask-1" x="-1" y=".9" width="233" height="35" maskUnits="userSpaceOnUse">
      <g id="path-2-outside-2_1133_2483-2" data-name="path-2-outside-2 1133 2483">
        <rect class="cls-5" x="-1" y=".9" width="233" height="35"/>
        <path class="cls-3" d="M26.8,20.3c.8.9.7,2.7-.2,4.7-1.4,3.2-4.9,6.7-9.1,6.7h0c-4.9,0-5.8-5.5-5.9-8.8,0-.9,0-1.5,0-1.5,0-.3-.2-.4-.5-.4s-.4.2-.5.4c0,0,0,.6,0,1.5-.1,2.3-.8,7.7-4.6,7.7s-.4,0-.6,0c-3.5-.4-3.6-5.8-3.4-8.1.5-7.3,4.5-16.8,8.2-16.8s.3,0,.5,0c1.2.3,2.1.9,2.6,1.9,1.6,3.3-1.2,9.5-1.3,9.6-.1.3,0,.5.2.6.2,0,.5,0,.6-.2,1.7-3.1,7-11.2,10.5-11.2s1.4.4,2,1.3c.6,1,.7,2,.4,2.9-1.1,3.3-6.7,6.1-10,7.4l-2.5.9c-.2.1-.3.4-.2.6,0,.2.3.3.6.3l2.4-.9c1.4-.4,3-.5,4.5-.5,3,0,5.3.7,6.4,1.9Z"/>
        <path class="cls-3" d="M49.8,16.1c.8,4.6.2,8.4-1.5,10.4-.8,1-1.9,1.4-3.1,1.4-4.3,0-4.4-6.7-4.4-6.8,0-.2-.2-.4-.4-.4-.3,0-.4,0-.5.3,0,0-1.7,6-4.4,8.4-.8.7-1.8,1.2-2.8,1.2-2.1,0-4.5-1.9-4.5-7s1.6-8.1,4.2-12.1c2.5-3.9,5.4-6.3,7.5-6.3,4.5,0,8.9,4.8,9.9,10.9ZM41.2,17.7l.6-5.3c0-.3-.2-.5-.4-.5-.3,0-.5.2-.5.4l-.6,5.3c0,.3.2.5.4.5h0c.2,0,.4-.2.4-.4Z"/>
        <path class="cls-3" d="M62.7,5.5c.6,1.2.6,2.7.2,4.2-.2.7-.5,1.3-.9,1.9-1.2-2-2.8-3.1-4.9-3.1s-1.6.2-2.4.4c-.4.1-.7.3-1,.5,0-.8,0-1.6.3-2.3.7-2.4,2.7-4.1,4.9-4.1s.8,0,1.2.2c1.2.4,2.1,1.2,2.7,2.4ZM61.3,12.3c-.9.9-2.1,1.4-3.3,1.4s-.8,0-1.2-.2c-1.5-.4-2.6-1.7-3-3.3.4-.3.7-.4,1.1-.6.8-.3,1.5-.4,2.1-.4,2,0,3.4,1.3,4.2,3ZM62.8,18.7c.4,6.9-2,14-4.8,14.3,0,0-.2,0-.3,0-2.5,0-5.2-4.5-6.2-10.5-.7-4.4-.4-9.2,1.6-11.6.6,1.6,1.8,2.9,3.5,3.4.4.1.9.2,1.4.2,1.4,0,2.7-.5,3.7-1.5.8,2.1,1,4.4,1.1,5.5Z"/>
        <path class="cls-3" d="M85,11.1c1.8,3.6,1.3,9.4-1.2,13.6-1.9,3.2-4.6,5.1-7.8,5.3-1.8.1-3.1-.4-4-1.5-2.7-3.4-.4-11.2-.4-11.2.2-.7-.6-.7-1-.4-2.9,2.2-5.2,2.6-6.4,1.2-1.5-1.9-.9-6.7,2-9.4,2.5-2.3,6.9-3.3,11.1-2.5,3.6.7,6.4,2.5,7.6,5ZM76.3,21.8l.6-5.3c0-.3-.2-.5-.4-.5-.3,0-.5.2-.5.4l-.6,5.3c0,.3.2.5.4.5h0c.2,0,.4-.2.4-.4Z"/>
        <path class="cls-3" d="M102.7,9.9c.9,4.2-1,12.8-4.9,17.6-1.7,2.1-3.5,3.2-5.4,3.2s-2.1-.4-3.2-1c-3.7-2.3-3.5-6.6-2.7-9.8,1.7-6.8,7.6-14.3,11.5-14.6h.1c.8,0,3.6.3,4.5,4.6ZM95,21.5l.6-5.3c0-.3-.2-.5-.4-.5s-.5.2-.5.4l-.6,5.3c0,.3.1.5.4.5h0c.2,0,.4-.2.5-.4Z"/>
        <path class="cls-3" d="M119.9,14c1.5-.6,3.7-1.1,6.7-.8-1.3,1.2-3,1.9-4.5,1.9-1,0-1.7-.4-2-1,0,0,0,0,0,0ZM132.9,17.7c.8,3.7-1.7,8.7-5.4,11.1-3.5,2.3-8.5,2.3-11.3.2-1.3-1-2.6-2.9-1.3-6.3.7-1.9,1.8-3.1,3.1-3.9l.4-.2c3.6-1.9,8.2-.5,8.5-.4.3,0,.5,0,.6-.3,0-.3,0-.5-.3-.6,0,0-5.4-1.6-9.5.6-.6.4-3.3,1.1-5,0-1-.6-1.5-1.9-1.6-3.6-.3-4.8,3.8-8.2,7.6-9.8,3.9-1.6,7.8-1.5,9.3.2,1.4,1.5,1.6,3.6.6,5.8-.3.7-.7,1.3-1.2,1.9-3.4-.4-6,0-7.7.7-.2-1.5.5-3.4.9-4.1,0-.3,0-.5-.2-.6-.2,0-.5,0-.6.2l-3.7,7c-.1.2,0,.5.2.6.2.1.4,0,.6-.1,0,0,.7-.9,2.2-1.6,0,0,0,.1,0,.2.5.9,1.5,1.4,2.8,1.4,2,0,4.2-.9,5.8-2.6.1,0,.3,0,.4,0,2.7.4,4.3,1.9,4.8,4.2Z"/>
        <path class="cls-3" d="M153,7.8c1,2.4,0,5.9-1.6,7.7-.8,1-2,1.5-3.4,1.5s-3.4-.8-3.4-.8c-.2,0-.4,0-.5,0-.2.2-.2.4,0,.6,0,0,1.7,2.6,3.7,8.5.4,1.2.3,2.2-.4,3.1-.9,1.3-3,2.1-5.3,2.1s-4-.8-4.8-2c-2.4-3.8.9-11.5.9-11.6,0-.2,0-.4,0-.5,0,0-.2-.2-.3-.2h-.2c-.9.3-1.6.4-2.2.4s-1.5-.2-2-.7c-1.2-1.3-1.1-4.2-.9-6.9.3-3.5,5.7-4.2,10.2-4.2s5.1.2,6.8.4c1.7.2,2.9,1,3.4,2.4Z"/>
        <path class="cls-3" d="M175.1,14.5c.6,6.6-1.7,11.7-4.1,14.3-1.2,1.3-2.5,2.1-3.5,2-.6,0-1.1-.3-1.4-.7-1-1.2-.8-3.6-.8-3.7,0-.2-.1-.4-.3-.5,0,0,0,0-.2,0-.2,0-.3,0-.4.3,0,0-1.9,3.3-4.7,4.1-4,1.2-6.5-1.4-7-5.5-.5-4.5.9-13.8,4.1-17.4.9-1,1.9-1.4,2.9-1.3,4,.6,2.9,11.9,2.4,15.4-.2,1.3-.3,2.1-.3,2.1,0,.3.1.5.4.5.3,0,.5-.2.5-.4,0,0,0-.9.3-2.1.5-3,1.5-8.5,3-11.1,1-1.7,2.9-3,4.6-3,2.5,0,4.1,2.5,4.5,7Z"/>
        <path class="cls-3" d="M197.7,11.1c1.8,3.6,1.3,9.4-1.2,13.6-1.9,3.2-4.6,5.1-7.8,5.3-1.8.1-3.1-.4-4-1.5-2.7-3.4-.4-11.2-.4-11.2.2-.7-.6-.7-1-.4-2.9,2.2-5.2,2.6-6.4,1.2-1.5-1.9-.9-6.7,2-9.4,2.5-2.3,6.9-3.3,11.1-2.5,3.6.7,6.4,2.5,7.6,5ZM189.1,21.8l.6-5.3c0-.3-.2-.5-.4-.5-.3,0-.5.2-.5.4l-.6,5.3c0,.3.2.5.4.5h0c.2,0,.4-.2.4-.4Z"/>
        <path class="cls-3" d="M211.6,5.5c.6,1.2.6,2.7.2,4.2-.2.7-.5,1.3-.9,1.9-1.2-2-2.8-3.1-4.9-3.1s-1.6.2-2.4.4c-.4.1-.7.3-1,.5,0-.8,0-1.6.3-2.3.7-2.4,2.7-4.1,4.9-4.1s.8,0,1.2.2c1.2.4,2.1,1.2,2.7,2.4ZM210.3,12.3c-.9.9-2.1,1.4-3.3,1.4s-.8,0-1.2-.2c-1.5-.4-2.6-1.7-3-3.3.4-.3.7-.4,1.1-.6.8-.3,1.5-.4,2.1-.4,2,0,3.4,1.3,4.2,3ZM211.8,18.7c.4,6.9-2,14-4.8,14.3,0,0-.2,0-.3,0-2.5,0-5.2-4.5-6.2-10.5-.7-4.4-.4-9.2,1.6-11.6.6,1.6,1.8,2.9,3.5,3.4.4.1.9.2,1.4.2,1.4,0,2.7-.5,3.7-1.5.8,2.1,1,4.4,1.1,5.5Z"/>
        <path class="cls-3" d="M229.3,9.9c.9,4.2-1,12.8-4.9,17.6-1.7,2.1-3.5,3.2-5.4,3.2s-2.1-.4-3.2-1c-3.7-2.3-3.5-6.6-2.7-9.8,1.7-6.8,7.6-14.3,11.5-14.6h.1c.8,0,3.6.3,4.5,4.6ZM221.6,21.5l.6-5.3c0-.3-.2-.5-.4-.5-.3,0-.5.2-.5.4l-.6,5.3c0,.3.1.5.4.5h0c.2,0,.4-.2.5-.4Z"/>
      </g>
    </mask>
    <mask id="mask-2" x="-1" y=".9" width="233" height="35" maskUnits="userSpaceOnUse">
      <g id="path-2-outside-2_1133_2483-3" data-name="path-2-outside-2 1133 2483">
        <rect class="cls-5" x="-1" y=".9" width="233" height="35"/>
        <path class="cls-3" d="M26.8,20.3c.8.9.7,2.7-.2,4.7-1.4,3.2-4.9,6.7-9.1,6.7h0c-4.9,0-5.8-5.5-5.9-8.8,0-.9,0-1.5,0-1.5,0-.3-.2-.4-.5-.4s-.4.2-.5.4c0,0,0,.6,0,1.5-.1,2.3-.8,7.7-4.6,7.7s-.4,0-.6,0c-3.5-.4-3.6-5.8-3.4-8.1.5-7.3,4.5-16.8,8.2-16.8s.3,0,.5,0c1.2.3,2.1.9,2.6,1.9,1.6,3.3-1.2,9.5-1.3,9.6-.1.3,0,.5.2.6.2,0,.5,0,.6-.2,1.7-3.1,7-11.2,10.5-11.2s1.4.4,2,1.3c.6,1,.7,2,.4,2.9-1.1,3.3-6.7,6.1-10,7.4l-2.5.9c-.2.1-.3.4-.2.6,0,.2.3.3.6.3l2.4-.9c1.4-.4,3-.5,4.5-.5,3,0,5.3.7,6.4,1.9Z"/>
        <path class="cls-3" d="M49.8,16.1c.8,4.6.2,8.4-1.5,10.4-.8,1-1.9,1.4-3.1,1.4-4.3,0-4.4-6.7-4.4-6.8,0-.2-.2-.4-.4-.4-.3,0-.4,0-.5.3,0,0-1.7,6-4.4,8.4-.8.7-1.8,1.2-2.8,1.2-2.1,0-4.5-1.9-4.5-7s1.6-8.1,4.2-12.1c2.5-3.9,5.4-6.3,7.5-6.3,4.5,0,8.9,4.8,9.9,10.9ZM41.2,17.7l.6-5.3c0-.3-.2-.5-.4-.5-.3,0-.5.2-.5.4l-.6,5.3c0,.3.2.5.4.5h0c.2,0,.4-.2.4-.4Z"/>
        <path class="cls-3" d="M62.7,5.5c.6,1.2.6,2.7.2,4.2-.2.7-.5,1.3-.9,1.9-1.2-2-2.8-3.1-4.9-3.1s-1.6.2-2.4.4c-.4.1-.7.3-1,.5,0-.8,0-1.6.3-2.3.7-2.4,2.7-4.1,4.9-4.1s.8,0,1.2.2c1.2.4,2.1,1.2,2.7,2.4ZM61.3,12.3c-.9.9-2.1,1.4-3.3,1.4s-.8,0-1.2-.2c-1.5-.4-2.6-1.7-3-3.3.4-.3.7-.4,1.1-.6.8-.3,1.5-.4,2.1-.4,2,0,3.4,1.3,4.2,3ZM62.8,18.7c.4,6.9-2,14-4.8,14.3,0,0-.2,0-.3,0-2.5,0-5.2-4.5-6.2-10.5-.7-4.4-.4-9.2,1.6-11.6.6,1.6,1.8,2.9,3.5,3.4.4.1.9.2,1.4.2,1.4,0,2.7-.5,3.7-1.5.8,2.1,1,4.4,1.1,5.5Z"/>
        <path class="cls-3" d="M85,11.1c1.8,3.6,1.3,9.4-1.2,13.6-1.9,3.2-4.6,5.1-7.8,5.3-1.8.1-3.1-.4-4-1.5-2.7-3.4-.4-11.2-.4-11.2.2-.7-.6-.7-1-.4-2.9,2.2-5.2,2.6-6.4,1.2-1.5-1.9-.9-6.7,2-9.4,2.5-2.3,6.9-3.3,11.1-2.5,3.6.7,6.4,2.5,7.6,5ZM76.3,21.8l.6-5.3c0-.3-.2-.5-.4-.5-.3,0-.5.2-.5.4l-.6,5.3c0,.3.2.5.4.5h0c.2,0,.4-.2.4-.4Z"/>
        <path class="cls-3" d="M102.7,9.9c.9,4.2-1,12.8-4.9,17.6-1.7,2.1-3.5,3.2-5.4,3.2s-2.1-.4-3.2-1c-3.7-2.3-3.5-6.6-2.7-9.8,1.7-6.8,7.6-14.3,11.5-14.6h.1c.8,0,3.6.3,4.5,4.6ZM95,21.5l.6-5.3c0-.3-.2-.5-.4-.5s-.5.2-.5.4l-.6,5.3c0,.3.1.5.4.5h0c.2,0,.4-.2.5-.4Z"/>
        <path class="cls-3" d="M119.9,14c1.5-.6,3.7-1.1,6.7-.8-1.3,1.2-3,1.9-4.5,1.9-1,0-1.7-.4-2-1,0,0,0,0,0,0ZM132.9,17.7c.8,3.7-1.7,8.7-5.4,11.1-3.5,2.3-8.5,2.3-11.3.2-1.3-1-2.6-2.9-1.3-6.3.7-1.9,1.8-3.1,3.1-3.9l.4-.2c3.6-1.9,8.2-.5,8.5-.4.3,0,.5,0,.6-.3,0-.3,0-.5-.3-.6,0,0-5.4-1.6-9.5.6-.6.4-3.3,1.1-5,0-1-.6-1.5-1.9-1.6-3.6-.3-4.8,3.8-8.2,7.6-9.8,3.9-1.6,7.8-1.5,9.3.2,1.4,1.5,1.6,3.6.6,5.8-.3.7-.7,1.3-1.2,1.9-3.4-.4-6,0-7.7.7-.2-1.5.5-3.4.9-4.1,0-.3,0-.5-.2-.6-.2,0-.5,0-.6.2l-3.7,7c-.1.2,0,.5.2.6.2.1.4,0,.6-.1,0,0,.7-.9,2.2-1.6,0,0,0,.1,0,.2.5.9,1.5,1.4,2.8,1.4,2,0,4.2-.9,5.8-2.6.1,0,.3,0,.4,0,2.7.4,4.3,1.9,4.8,4.2Z"/>
        <path class="cls-3" d="M153,7.8c1,2.4,0,5.9-1.6,7.7-.8,1-2,1.5-3.4,1.5s-3.4-.8-3.4-.8c-.2,0-.4,0-.5,0-.2.2-.2.4,0,.6,0,0,1.7,2.6,3.7,8.5.4,1.2.3,2.2-.4,3.1-.9,1.3-3,2.1-5.3,2.1s-4-.8-4.8-2c-2.4-3.8.9-11.5.9-11.6,0-.2,0-.4,0-.5,0,0-.2-.2-.3-.2h-.2c-.9.3-1.6.4-2.2.4s-1.5-.2-2-.7c-1.2-1.3-1.1-4.2-.9-6.9.3-3.5,5.7-4.2,10.2-4.2s5.1.2,6.8.4c1.7.2,2.9,1,3.4,2.4Z"/>
        <path class="cls-3" d="M175.1,14.5c.6,6.6-1.7,11.7-4.1,14.3-1.2,1.3-2.5,2.1-3.5,2-.6,0-1.1-.3-1.4-.7-1-1.2-.8-3.6-.8-3.7,0-.2-.1-.4-.3-.5,0,0,0,0-.2,0-.2,0-.3,0-.4.3,0,0-1.9,3.3-4.7,4.1-4,1.2-6.5-1.4-7-5.5-.5-4.5.9-13.8,4.1-17.4.9-1,1.9-1.4,2.9-1.3,4,.6,2.9,11.9,2.4,15.4-.2,1.3-.3,2.1-.3,2.1,0,.3.1.5.4.5.3,0,.5-.2.5-.4,0,0,0-.9.3-2.1.5-3,1.5-8.5,3-11.1,1-1.7,2.9-3,4.6-3,2.5,0,4.1,2.5,4.5,7Z"/>
        <path class="cls-3" d="M197.7,11.1c1.8,3.6,1.3,9.4-1.2,13.6-1.9,3.2-4.6,5.1-7.8,5.3-1.8.1-3.1-.4-4-1.5-2.7-3.4-.4-11.2-.4-11.2.2-.7-.6-.7-1-.4-2.9,2.2-5.2,2.6-6.4,1.2-1.5-1.9-.9-6.7,2-9.4,2.5-2.3,6.9-3.3,11.1-2.5,3.6.7,6.4,2.5,7.6,5ZM189.1,21.8l.6-5.3c0-.3-.2-.5-.4-.5-.3,0-.5.2-.5.4l-.6,5.3c0,.3.2.5.4.5h0c.2,0,.4-.2.4-.4Z"/>
        <path class="cls-3" d="M211.6,5.5c.6,1.2.6,2.7.2,4.2-.2.7-.5,1.3-.9,1.9-1.2-2-2.8-3.1-4.9-3.1s-1.6.2-2.4.4c-.4.1-.7.3-1,.5,0-.8,0-1.6.3-2.3.7-2.4,2.7-4.1,4.9-4.1s.8,0,1.2.2c1.2.4,2.1,1.2,2.7,2.4ZM210.3,12.3c-.9.9-2.1,1.4-3.3,1.4s-.8,0-1.2-.2c-1.5-.4-2.6-1.7-3-3.3.4-.3.7-.4,1.1-.6.8-.3,1.5-.4,2.1-.4,2,0,3.4,1.3,4.2,3ZM211.8,18.7c.4,6.9-2,14-4.8,14.3,0,0-.2,0-.3,0-2.5,0-5.2-4.5-6.2-10.5-.7-4.4-.4-9.2,1.6-11.6.6,1.6,1.8,2.9,3.5,3.4.4.1.9.2,1.4.2,1.4,0,2.7-.5,3.7-1.5.8,2.1,1,4.4,1.1,5.5Z"/>
        <path class="cls-3" d="M229.3,9.9c.9,4.2-1,12.8-4.9,17.6-1.7,2.1-3.5,3.2-5.4,3.2s-2.1-.4-3.2-1c-3.7-2.3-3.5-6.6-2.7-9.8,1.7-6.8,7.6-14.3,11.5-14.6h.1c.8,0,3.6.3,4.5,4.6ZM221.6,21.5l.6-5.3c0-.3-.2-.5-.4-.5-.3,0-.5.2-.5.4l-.6,5.3c0,.3.1.5.4.5h0c.2,0,.4-.2.5-.4Z"/>
      </g>
    </mask>
    <mask id="mask-3" x="-1" y=".9" width="233" height="35" maskUnits="userSpaceOnUse">
      <g id="path-2-outside-2_1133_2483-4" data-name="path-2-outside-2 1133 2483">
        <rect class="cls-5" x="-1" y=".9" width="233" height="35"/>
        <path class="cls-3" d="M26.8,20.3c.8.9.7,2.7-.2,4.7-1.4,3.2-4.9,6.7-9.1,6.7h0c-4.9,0-5.8-5.5-5.9-8.8,0-.9,0-1.5,0-1.5,0-.3-.2-.4-.5-.4s-.4.2-.5.4c0,0,0,.6,0,1.5-.1,2.3-.8,7.7-4.6,7.7s-.4,0-.6,0c-3.5-.4-3.6-5.8-3.4-8.1.5-7.3,4.5-16.8,8.2-16.8s.3,0,.5,0c1.2.3,2.1.9,2.6,1.9,1.6,3.3-1.2,9.5-1.3,9.6-.1.3,0,.5.2.6.2,0,.5,0,.6-.2,1.7-3.1,7-11.2,10.5-11.2s1.4.4,2,1.3c.6,1,.7,2,.4,2.9-1.1,3.3-6.7,6.1-10,7.4l-2.5.9c-.2.1-.3.4-.2.6,0,.2.3.3.6.3l2.4-.9c1.4-.4,3-.5,4.5-.5,3,0,5.3.7,6.4,1.9Z"/>
        <path class="cls-3" d="M49.8,16.1c.8,4.6.2,8.4-1.5,10.4-.8,1-1.9,1.4-3.1,1.4-4.3,0-4.4-6.7-4.4-6.8,0-.2-.2-.4-.4-.4-.3,0-.4,0-.5.3,0,0-1.7,6-4.4,8.4-.8.7-1.8,1.2-2.8,1.2-2.1,0-4.5-1.9-4.5-7s1.6-8.1,4.2-12.1c2.5-3.9,5.4-6.3,7.5-6.3,4.5,0,8.9,4.8,9.9,10.9ZM41.2,17.7l.6-5.3c0-.3-.2-.5-.4-.5-.3,0-.5.2-.5.4l-.6,5.3c0,.3.2.5.4.5h0c.2,0,.4-.2.4-.4Z"/>
        <path class="cls-3" d="M62.7,5.5c.6,1.2.6,2.7.2,4.2-.2.7-.5,1.3-.9,1.9-1.2-2-2.8-3.1-4.9-3.1s-1.6.2-2.4.4c-.4.1-.7.3-1,.5,0-.8,0-1.6.3-2.3.7-2.4,2.7-4.1,4.9-4.1s.8,0,1.2.2c1.2.4,2.1,1.2,2.7,2.4ZM61.3,12.3c-.9.9-2.1,1.4-3.3,1.4s-.8,0-1.2-.2c-1.5-.4-2.6-1.7-3-3.3.4-.3.7-.4,1.1-.6.8-.3,1.5-.4,2.1-.4,2,0,3.4,1.3,4.2,3ZM62.8,18.7c.4,6.9-2,14-4.8,14.3,0,0-.2,0-.3,0-2.5,0-5.2-4.5-6.2-10.5-.7-4.4-.4-9.2,1.6-11.6.6,1.6,1.8,2.9,3.5,3.4.4.1.9.2,1.4.2,1.4,0,2.7-.5,3.7-1.5.8,2.1,1,4.4,1.1,5.5Z"/>
        <path class="cls-3" d="M85,11.1c1.8,3.6,1.3,9.4-1.2,13.6-1.9,3.2-4.6,5.1-7.8,5.3-1.8.1-3.1-.4-4-1.5-2.7-3.4-.4-11.2-.4-11.2.2-.7-.6-.7-1-.4-2.9,2.2-5.2,2.6-6.4,1.2-1.5-1.9-.9-6.7,2-9.4,2.5-2.3,6.9-3.3,11.1-2.5,3.6.7,6.4,2.5,7.6,5ZM76.3,21.8l.6-5.3c0-.3-.2-.5-.4-.5-.3,0-.5.2-.5.4l-.6,5.3c0,.3.2.5.4.5h0c.2,0,.4-.2.4-.4Z"/>
        <path class="cls-3" d="M102.7,9.9c.9,4.2-1,12.8-4.9,17.6-1.7,2.1-3.5,3.2-5.4,3.2s-2.1-.4-3.2-1c-3.7-2.3-3.5-6.6-2.7-9.8,1.7-6.8,7.6-14.3,11.5-14.6h.1c.8,0,3.6.3,4.5,4.6ZM95,21.5l.6-5.3c0-.3-.2-.5-.4-.5s-.5.2-.5.4l-.6,5.3c0,.3.1.5.4.5h0c.2,0,.4-.2.5-.4Z"/>
        <path class="cls-3" d="M119.9,14c1.5-.6,3.7-1.1,6.7-.8-1.3,1.2-3,1.9-4.5,1.9-1,0-1.7-.4-2-1,0,0,0,0,0,0ZM132.9,17.7c.8,3.7-1.7,8.7-5.4,11.1-3.5,2.3-8.5,2.3-11.3.2-1.3-1-2.6-2.9-1.3-6.3.7-1.9,1.8-3.1,3.1-3.9l.4-.2c3.6-1.9,8.2-.5,8.5-.4.3,0,.5,0,.6-.3,0-.3,0-.5-.3-.6,0,0-5.4-1.6-9.5.6-.6.4-3.3,1.1-5,0-1-.6-1.5-1.9-1.6-3.6-.3-4.8,3.8-8.2,7.6-9.8,3.9-1.6,7.8-1.5,9.3.2,1.4,1.5,1.6,3.6.6,5.8-.3.7-.7,1.3-1.2,1.9-3.4-.4-6,0-7.7.7-.2-1.5.5-3.4.9-4.1,0-.3,0-.5-.2-.6-.2,0-.5,0-.6.2l-3.7,7c-.1.2,0,.5.2.6.2.1.4,0,.6-.1,0,0,.7-.9,2.2-1.6,0,0,0,.1,0,.2.5.9,1.5,1.4,2.8,1.4,2,0,4.2-.9,5.8-2.6.1,0,.3,0,.4,0,2.7.4,4.3,1.9,4.8,4.2Z"/>
        <path class="cls-3" d="M153,7.8c1,2.4,0,5.9-1.6,7.7-.8,1-2,1.5-3.4,1.5s-3.4-.8-3.4-.8c-.2,0-.4,0-.5,0-.2.2-.2.4,0,.6,0,0,1.7,2.6,3.7,8.5.4,1.2.3,2.2-.4,3.1-.9,1.3-3,2.1-5.3,2.1s-4-.8-4.8-2c-2.4-3.8.9-11.5.9-11.6,0-.2,0-.4,0-.5,0,0-.2-.2-.3-.2h-.2c-.9.3-1.6.4-2.2.4s-1.5-.2-2-.7c-1.2-1.3-1.1-4.2-.9-6.9.3-3.5,5.7-4.2,10.2-4.2s5.1.2,6.8.4c1.7.2,2.9,1,3.4,2.4Z"/>
        <path class="cls-3" d="M175.1,14.5c.6,6.6-1.7,11.7-4.1,14.3-1.2,1.3-2.5,2.1-3.5,2-.6,0-1.1-.3-1.4-.7-1-1.2-.8-3.6-.8-3.7,0-.2-.1-.4-.3-.5,0,0,0,0-.2,0-.2,0-.3,0-.4.3,0,0-1.9,3.3-4.7,4.1-4,1.2-6.5-1.4-7-5.5-.5-4.5.9-13.8,4.1-17.4.9-1,1.9-1.4,2.9-1.3,4,.6,2.9,11.9,2.4,15.4-.2,1.3-.3,2.1-.3,2.1,0,.3.1.5.4.5.3,0,.5-.2.5-.4,0,0,0-.9.3-2.1.5-3,1.5-8.5,3-11.1,1-1.7,2.9-3,4.6-3,2.5,0,4.1,2.5,4.5,7Z"/>
        <path class="cls-3" d="M197.7,11.1c1.8,3.6,1.3,9.4-1.2,13.6-1.9,3.2-4.6,5.1-7.8,5.3-1.8.1-3.1-.4-4-1.5-2.7-3.4-.4-11.2-.4-11.2.2-.7-.6-.7-1-.4-2.9,2.2-5.2,2.6-6.4,1.2-1.5-1.9-.9-6.7,2-9.4,2.5-2.3,6.9-3.3,11.1-2.5,3.6.7,6.4,2.5,7.6,5ZM189.1,21.8l.6-5.3c0-.3-.2-.5-.4-.5-.3,0-.5.2-.5.4l-.6,5.3c0,.3.2.5.4.5h0c.2,0,.4-.2.4-.4Z"/>
        <path class="cls-3" d="M211.6,5.5c.6,1.2.6,2.7.2,4.2-.2.7-.5,1.3-.9,1.9-1.2-2-2.8-3.1-4.9-3.1s-1.6.2-2.4.4c-.4.1-.7.3-1,.5,0-.8,0-1.6.3-2.3.7-2.4,2.7-4.1,4.9-4.1s.8,0,1.2.2c1.2.4,2.1,1.2,2.7,2.4ZM210.3,12.3c-.9.9-2.1,1.4-3.3,1.4s-.8,0-1.2-.2c-1.5-.4-2.6-1.7-3-3.3.4-.3.7-.4,1.1-.6.8-.3,1.5-.4,2.1-.4,2,0,3.4,1.3,4.2,3ZM211.8,18.7c.4,6.9-2,14-4.8,14.3,0,0-.2,0-.3,0-2.5,0-5.2-4.5-6.2-10.5-.7-4.4-.4-9.2,1.6-11.6.6,1.6,1.8,2.9,3.5,3.4.4.1.9.2,1.4.2,1.4,0,2.7-.5,3.7-1.5.8,2.1,1,4.4,1.1,5.5Z"/>
        <path class="cls-3" d="M229.3,9.9c.9,4.2-1,12.8-4.9,17.6-1.7,2.1-3.5,3.2-5.4,3.2s-2.1-.4-3.2-1c-3.7-2.3-3.5-6.6-2.7-9.8,1.7-6.8,7.6-14.3,11.5-14.6h.1c.8,0,3.6.3,4.5,4.6ZM221.6,21.5l.6-5.3c0-.3-.2-.5-.4-.5-.3,0-.5.2-.5.4l-.6,5.3c0,.3.1.5.4.5h0c.2,0,.4-.2.5-.4Z"/>
      </g>
    </mask>
    <mask id="mask-4" x="-1" y=".9" width="233" height="35" maskUnits="userSpaceOnUse">
      <g id="path-2-outside-2_1133_2483-5" data-name="path-2-outside-2 1133 2483">
        <rect class="cls-5" x="-1" y=".9" width="233" height="35"/>
        <path class="cls-3" d="M26.8,20.3c.8.9.7,2.7-.2,4.7-1.4,3.2-4.9,6.7-9.1,6.7h0c-4.9,0-5.8-5.5-5.9-8.8,0-.9,0-1.5,0-1.5,0-.3-.2-.4-.5-.4s-.4.2-.5.4c0,0,0,.6,0,1.5-.1,2.3-.8,7.7-4.6,7.7s-.4,0-.6,0c-3.5-.4-3.6-5.8-3.4-8.1.5-7.3,4.5-16.8,8.2-16.8s.3,0,.5,0c1.2.3,2.1.9,2.6,1.9,1.6,3.3-1.2,9.5-1.3,9.6-.1.3,0,.5.2.6.2,0,.5,0,.6-.2,1.7-3.1,7-11.2,10.5-11.2s1.4.4,2,1.3c.6,1,.7,2,.4,2.9-1.1,3.3-6.7,6.1-10,7.4l-2.5.9c-.2.1-.3.4-.2.6,0,.2.3.3.6.3l2.4-.9c1.4-.4,3-.5,4.5-.5,3,0,5.3.7,6.4,1.9Z"/>
        <path class="cls-3" d="M49.8,16.1c.8,4.6.2,8.4-1.5,10.4-.8,1-1.9,1.4-3.1,1.4-4.3,0-4.4-6.7-4.4-6.8,0-.2-.2-.4-.4-.4-.3,0-.4,0-.5.3,0,0-1.7,6-4.4,8.4-.8.7-1.8,1.2-2.8,1.2-2.1,0-4.5-1.9-4.5-7s1.6-8.1,4.2-12.1c2.5-3.9,5.4-6.3,7.5-6.3,4.5,0,8.9,4.8,9.9,10.9ZM41.2,17.7l.6-5.3c0-.3-.2-.5-.4-.5-.3,0-.5.2-.5.4l-.6,5.3c0,.3.2.5.4.5h0c.2,0,.4-.2.4-.4Z"/>
        <path class="cls-3" d="M62.7,5.5c.6,1.2.6,2.7.2,4.2-.2.7-.5,1.3-.9,1.9-1.2-2-2.8-3.1-4.9-3.1s-1.6.2-2.4.4c-.4.1-.7.3-1,.5,0-.8,0-1.6.3-2.3.7-2.4,2.7-4.1,4.9-4.1s.8,0,1.2.2c1.2.4,2.1,1.2,2.7,2.4ZM61.3,12.3c-.9.9-2.1,1.4-3.3,1.4s-.8,0-1.2-.2c-1.5-.4-2.6-1.7-3-3.3.4-.3.7-.4,1.1-.6.8-.3,1.5-.4,2.1-.4,2,0,3.4,1.3,4.2,3ZM62.8,18.7c.4,6.9-2,14-4.8,14.3,0,0-.2,0-.3,0-2.5,0-5.2-4.5-6.2-10.5-.7-4.4-.4-9.2,1.6-11.6.6,1.6,1.8,2.9,3.5,3.4.4.1.9.2,1.4.2,1.4,0,2.7-.5,3.7-1.5.8,2.1,1,4.4,1.1,5.5Z"/>
        <path class="cls-3" d="M85,11.1c1.8,3.6,1.3,9.4-1.2,13.6-1.9,3.2-4.6,5.1-7.8,5.3-1.8.1-3.1-.4-4-1.5-2.7-3.4-.4-11.2-.4-11.2.2-.7-.6-.7-1-.4-2.9,2.2-5.2,2.6-6.4,1.2-1.5-1.9-.9-6.7,2-9.4,2.5-2.3,6.9-3.3,11.1-2.5,3.6.7,6.4,2.5,7.6,5ZM76.3,21.8l.6-5.3c0-.3-.2-.5-.4-.5-.3,0-.5.2-.5.4l-.6,5.3c0,.3.2.5.4.5h0c.2,0,.4-.2.4-.4Z"/>
        <path class="cls-3" d="M102.7,9.9c.9,4.2-1,12.8-4.9,17.6-1.7,2.1-3.5,3.2-5.4,3.2s-2.1-.4-3.2-1c-3.7-2.3-3.5-6.6-2.7-9.8,1.7-6.8,7.6-14.3,11.5-14.6h.1c.8,0,3.6.3,4.5,4.6ZM95,21.5l.6-5.3c0-.3-.2-.5-.4-.5s-.5.2-.5.4l-.6,5.3c0,.3.1.5.4.5h0c.2,0,.4-.2.5-.4Z"/>
        <path class="cls-3" d="M119.9,14c1.5-.6,3.7-1.1,6.7-.8-1.3,1.2-3,1.9-4.5,1.9-1,0-1.7-.4-2-1,0,0,0,0,0,0ZM132.9,17.7c.8,3.7-1.7,8.7-5.4,11.1-3.5,2.3-8.5,2.3-11.3.2-1.3-1-2.6-2.9-1.3-6.3.7-1.9,1.8-3.1,3.1-3.9l.4-.2c3.6-1.9,8.2-.5,8.5-.4.3,0,.5,0,.6-.3,0-.3,0-.5-.3-.6,0,0-5.4-1.6-9.5.6-.6.4-3.3,1.1-5,0-1-.6-1.5-1.9-1.6-3.6-.3-4.8,3.8-8.2,7.6-9.8,3.9-1.6,7.8-1.5,9.3.2,1.4,1.5,1.6,3.6.6,5.8-.3.7-.7,1.3-1.2,1.9-3.4-.4-6,0-7.7.7-.2-1.5.5-3.4.9-4.1,0-.3,0-.5-.2-.6-.2,0-.5,0-.6.2l-3.7,7c-.1.2,0,.5.2.6.2.1.4,0,.6-.1,0,0,.7-.9,2.2-1.6,0,0,0,.1,0,.2.5.9,1.5,1.4,2.8,1.4,2,0,4.2-.9,5.8-2.6.1,0,.3,0,.4,0,2.7.4,4.3,1.9,4.8,4.2Z"/>
        <path class="cls-3" d="M153,7.8c1,2.4,0,5.9-1.6,7.7-.8,1-2,1.5-3.4,1.5s-3.4-.8-3.4-.8c-.2,0-.4,0-.5,0-.2.2-.2.4,0,.6,0,0,1.7,2.6,3.7,8.5.4,1.2.3,2.2-.4,3.1-.9,1.3-3,2.1-5.3,2.1s-4-.8-4.8-2c-2.4-3.8.9-11.5.9-11.6,0-.2,0-.4,0-.5,0,0-.2-.2-.3-.2h-.2c-.9.3-1.6.4-2.2.4s-1.5-.2-2-.7c-1.2-1.3-1.1-4.2-.9-6.9.3-3.5,5.7-4.2,10.2-4.2s5.1.2,6.8.4c1.7.2,2.9,1,3.4,2.4Z"/>
        <path class="cls-3" d="M175.1,14.5c.6,6.6-1.7,11.7-4.1,14.3-1.2,1.3-2.5,2.1-3.5,2-.6,0-1.1-.3-1.4-.7-1-1.2-.8-3.6-.8-3.7,0-.2-.1-.4-.3-.5,0,0,0,0-.2,0-.2,0-.3,0-.4.3,0,0-1.9,3.3-4.7,4.1-4,1.2-6.5-1.4-7-5.5-.5-4.5.9-13.8,4.1-17.4.9-1,1.9-1.4,2.9-1.3,4,.6,2.9,11.9,2.4,15.4-.2,1.3-.3,2.1-.3,2.1,0,.3.1.5.4.5.3,0,.5-.2.5-.4,0,0,0-.9.3-2.1.5-3,1.5-8.5,3-11.1,1-1.7,2.9-3,4.6-3,2.5,0,4.1,2.5,4.5,7Z"/>
        <path class="cls-3" d="M197.7,11.1c1.8,3.6,1.3,9.4-1.2,13.6-1.9,3.2-4.6,5.1-7.8,5.3-1.8.1-3.1-.4-4-1.5-2.7-3.4-.4-11.2-.4-11.2.2-.7-.6-.7-1-.4-2.9,2.2-5.2,2.6-6.4,1.2-1.5-1.9-.9-6.7,2-9.4,2.5-2.3,6.9-3.3,11.1-2.5,3.6.7,6.4,2.5,7.6,5ZM189.1,21.8l.6-5.3c0-.3-.2-.5-.4-.5-.3,0-.5.2-.5.4l-.6,5.3c0,.3.2.5.4.5h0c.2,0,.4-.2.4-.4Z"/>
        <path class="cls-3" d="M211.6,5.5c.6,1.2.6,2.7.2,4.2-.2.7-.5,1.3-.9,1.9-1.2-2-2.8-3.1-4.9-3.1s-1.6.2-2.4.4c-.4.1-.7.3-1,.5,0-.8,0-1.6.3-2.3.7-2.4,2.7-4.1,4.9-4.1s.8,0,1.2.2c1.2.4,2.1,1.2,2.7,2.4ZM210.3,12.3c-.9.9-2.1,1.4-3.3,1.4s-.8,0-1.2-.2c-1.5-.4-2.6-1.7-3-3.3.4-.3.7-.4,1.1-.6.8-.3,1.5-.4,2.1-.4,2,0,3.4,1.3,4.2,3ZM211.8,18.7c.4,6.9-2,14-4.8,14.3,0,0-.2,0-.3,0-2.5,0-5.2-4.5-6.2-10.5-.7-4.4-.4-9.2,1.6-11.6.6,1.6,1.8,2.9,3.5,3.4.4.1.9.2,1.4.2,1.4,0,2.7-.5,3.7-1.5.8,2.1,1,4.4,1.1,5.5Z"/>
        <path class="cls-3" d="M229.3,9.9c.9,4.2-1,12.8-4.9,17.6-1.7,2.1-3.5,3.2-5.4,3.2s-2.1-.4-3.2-1c-3.7-2.3-3.5-6.6-2.7-9.8,1.7-6.8,7.6-14.3,11.5-14.6h.1c.8,0,3.6.3,4.5,4.6ZM221.6,21.5l.6-5.3c0-.3-.2-.5-.4-.5-.3,0-.5.2-.5.4l-.6,5.3c0,.3.1.5.4.5h0c.2,0,.4-.2.5-.4Z"/>
      </g>
    </mask>
    <mask id="mask-5" x="-1" y=".9" width="233" height="35" maskUnits="userSpaceOnUse">
      <g id="path-2-outside-2_1133_2483-6" data-name="path-2-outside-2 1133 2483">
        <rect class="cls-5" x="-1" y=".9" width="233" height="35"/>
        <path class="cls-3" d="M26.8,20.3c.8.9.7,2.7-.2,4.7-1.4,3.2-4.9,6.7-9.1,6.7h0c-4.9,0-5.8-5.5-5.9-8.8,0-.9,0-1.5,0-1.5,0-.3-.2-.4-.5-.4s-.4.2-.5.4c0,0,0,.6,0,1.5-.1,2.3-.8,7.7-4.6,7.7s-.4,0-.6,0c-3.5-.4-3.6-5.8-3.4-8.1.5-7.3,4.5-16.8,8.2-16.8s.3,0,.5,0c1.2.3,2.1.9,2.6,1.9,1.6,3.3-1.2,9.5-1.3,9.6-.1.3,0,.5.2.6.2,0,.5,0,.6-.2,1.7-3.1,7-11.2,10.5-11.2s1.4.4,2,1.3c.6,1,.7,2,.4,2.9-1.1,3.3-6.7,6.1-10,7.4l-2.5.9c-.2.1-.3.4-.2.6,0,.2.3.3.6.3l2.4-.9c1.4-.4,3-.5,4.5-.5,3,0,5.3.7,6.4,1.9Z"/>
        <path class="cls-3" d="M49.8,16.1c.8,4.6.2,8.4-1.5,10.4-.8,1-1.9,1.4-3.1,1.4-4.3,0-4.4-6.7-4.4-6.8,0-.2-.2-.4-.4-.4-.3,0-.4,0-.5.3,0,0-1.7,6-4.4,8.4-.8.7-1.8,1.2-2.8,1.2-2.1,0-4.5-1.9-4.5-7s1.6-8.1,4.2-12.1c2.5-3.9,5.4-6.3,7.5-6.3,4.5,0,8.9,4.8,9.9,10.9ZM41.2,17.7l.6-5.3c0-.3-.2-.5-.4-.5-.3,0-.5.2-.5.4l-.6,5.3c0,.3.2.5.4.5h0c.2,0,.4-.2.4-.4Z"/>
        <path class="cls-3" d="M62.7,5.5c.6,1.2.6,2.7.2,4.2-.2.7-.5,1.3-.9,1.9-1.2-2-2.8-3.1-4.9-3.1s-1.6.2-2.4.4c-.4.1-.7.3-1,.5,0-.8,0-1.6.3-2.3.7-2.4,2.7-4.1,4.9-4.1s.8,0,1.2.2c1.2.4,2.1,1.2,2.7,2.4ZM61.3,12.3c-.9.9-2.1,1.4-3.3,1.4s-.8,0-1.2-.2c-1.5-.4-2.6-1.7-3-3.3.4-.3.7-.4,1.1-.6.8-.3,1.5-.4,2.1-.4,2,0,3.4,1.3,4.2,3ZM62.8,18.7c.4,6.9-2,14-4.8,14.3,0,0-.2,0-.3,0-2.5,0-5.2-4.5-6.2-10.5-.7-4.4-.4-9.2,1.6-11.6.6,1.6,1.8,2.9,3.5,3.4.4.1.9.2,1.4.2,1.4,0,2.7-.5,3.7-1.5.8,2.1,1,4.4,1.1,5.5Z"/>
        <path class="cls-3" d="M85,11.1c1.8,3.6,1.3,9.4-1.2,13.6-1.9,3.2-4.6,5.1-7.8,5.3-1.8.1-3.1-.4-4-1.5-2.7-3.4-.4-11.2-.4-11.2.2-.7-.6-.7-1-.4-2.9,2.2-5.2,2.6-6.4,1.2-1.5-1.9-.9-6.7,2-9.4,2.5-2.3,6.9-3.3,11.1-2.5,3.6.7,6.4,2.5,7.6,5ZM76.3,21.8l.6-5.3c0-.3-.2-.5-.4-.5-.3,0-.5.2-.5.4l-.6,5.3c0,.3.2.5.4.5h0c.2,0,.4-.2.4-.4Z"/>
        <path class="cls-3" d="M102.7,9.9c.9,4.2-1,12.8-4.9,17.6-1.7,2.1-3.5,3.2-5.4,3.2s-2.1-.4-3.2-1c-3.7-2.3-3.5-6.6-2.7-9.8,1.7-6.8,7.6-14.3,11.5-14.6h.1c.8,0,3.6.3,4.5,4.6ZM95,21.5l.6-5.3c0-.3-.2-.5-.4-.5s-.5.2-.5.4l-.6,5.3c0,.3.1.5.4.5h0c.2,0,.4-.2.5-.4Z"/>
        <path class="cls-3" d="M119.9,14c1.5-.6,3.7-1.1,6.7-.8-1.3,1.2-3,1.9-4.5,1.9-1,0-1.7-.4-2-1,0,0,0,0,0,0ZM132.9,17.7c.8,3.7-1.7,8.7-5.4,11.1-3.5,2.3-8.5,2.3-11.3.2-1.3-1-2.6-2.9-1.3-6.3.7-1.9,1.8-3.1,3.1-3.9l.4-.2c3.6-1.9,8.2-.5,8.5-.4.3,0,.5,0,.6-.3,0-.3,0-.5-.3-.6,0,0-5.4-1.6-9.5.6-.6.4-3.3,1.1-5,0-1-.6-1.5-1.9-1.6-3.6-.3-4.8,3.8-8.2,7.6-9.8,3.9-1.6,7.8-1.5,9.3.2,1.4,1.5,1.6,3.6.6,5.8-.3.7-.7,1.3-1.2,1.9-3.4-.4-6,0-7.7.7-.2-1.5.5-3.4.9-4.1,0-.3,0-.5-.2-.6-.2,0-.5,0-.6.2l-3.7,7c-.1.2,0,.5.2.6.2.1.4,0,.6-.1,0,0,.7-.9,2.2-1.6,0,0,0,.1,0,.2.5.9,1.5,1.4,2.8,1.4,2,0,4.2-.9,5.8-2.6.1,0,.3,0,.4,0,2.7.4,4.3,1.9,4.8,4.2Z"/>
        <path class="cls-3" d="M153,7.8c1,2.4,0,5.9-1.6,7.7-.8,1-2,1.5-3.4,1.5s-3.4-.8-3.4-.8c-.2,0-.4,0-.5,0-.2.2-.2.4,0,.6,0,0,1.7,2.6,3.7,8.5.4,1.2.3,2.2-.4,3.1-.9,1.3-3,2.1-5.3,2.1s-4-.8-4.8-2c-2.4-3.8.9-11.5.9-11.6,0-.2,0-.4,0-.5,0,0-.2-.2-.3-.2h-.2c-.9.3-1.6.4-2.2.4s-1.5-.2-2-.7c-1.2-1.3-1.1-4.2-.9-6.9.3-3.5,5.7-4.2,10.2-4.2s5.1.2,6.8.4c1.7.2,2.9,1,3.4,2.4Z"/>
        <path class="cls-3" d="M175.1,14.5c.6,6.6-1.7,11.7-4.1,14.3-1.2,1.3-2.5,2.1-3.5,2-.6,0-1.1-.3-1.4-.7-1-1.2-.8-3.6-.8-3.7,0-.2-.1-.4-.3-.5,0,0,0,0-.2,0-.2,0-.3,0-.4.3,0,0-1.9,3.3-4.7,4.1-4,1.2-6.5-1.4-7-5.5-.5-4.5.9-13.8,4.1-17.4.9-1,1.9-1.4,2.9-1.3,4,.6,2.9,11.9,2.4,15.4-.2,1.3-.3,2.1-.3,2.1,0,.3.1.5.4.5.3,0,.5-.2.5-.4,0,0,0-.9.3-2.1.5-3,1.5-8.5,3-11.1,1-1.7,2.9-3,4.6-3,2.5,0,4.1,2.5,4.5,7Z"/>
        <path class="cls-3" d="M197.7,11.1c1.8,3.6,1.3,9.4-1.2,13.6-1.9,3.2-4.6,5.1-7.8,5.3-1.8.1-3.1-.4-4-1.5-2.7-3.4-.4-11.2-.4-11.2.2-.7-.6-.7-1-.4-2.9,2.2-5.2,2.6-6.4,1.2-1.5-1.9-.9-6.7,2-9.4,2.5-2.3,6.9-3.3,11.1-2.5,3.6.7,6.4,2.5,7.6,5ZM189.1,21.8l.6-5.3c0-.3-.2-.5-.4-.5-.3,0-.5.2-.5.4l-.6,5.3c0,.3.2.5.4.5h0c.2,0,.4-.2.4-.4Z"/>
        <path class="cls-3" d="M211.6,5.5c.6,1.2.6,2.7.2,4.2-.2.7-.5,1.3-.9,1.9-1.2-2-2.8-3.1-4.9-3.1s-1.6.2-2.4.4c-.4.1-.7.3-1,.5,0-.8,0-1.6.3-2.3.7-2.4,2.7-4.1,4.9-4.1s.8,0,1.2.2c1.2.4,2.1,1.2,2.7,2.4ZM210.3,12.3c-.9.9-2.1,1.4-3.3,1.4s-.8,0-1.2-.2c-1.5-.4-2.6-1.7-3-3.3.4-.3.7-.4,1.1-.6.8-.3,1.5-.4,2.1-.4,2,0,3.4,1.3,4.2,3ZM211.8,18.7c.4,6.9-2,14-4.8,14.3,0,0-.2,0-.3,0-2.5,0-5.2-4.5-6.2-10.5-.7-4.4-.4-9.2,1.6-11.6.6,1.6,1.8,2.9,3.5,3.4.4.1.9.2,1.4.2,1.4,0,2.7-.5,3.7-1.5.8,2.1,1,4.4,1.1,5.5Z"/>
        <path class="cls-3" d="M229.3,9.9c.9,4.2-1,12.8-4.9,17.6-1.7,2.1-3.5,3.2-5.4,3.2s-2.1-.4-3.2-1c-3.7-2.3-3.5-6.6-2.7-9.8,1.7-6.8,7.6-14.3,11.5-14.6h.1c.8,0,3.6.3,4.5,4.6ZM221.6,21.5l.6-5.3c0-.3-.2-.5-.4-.5-.3,0-.5.2-.5.4l-.6,5.3c0,.3.1.5.4.5h0c.2,0,.4-.2.5-.4Z"/>
      </g>
    </mask>
    <mask id="mask-6" x="-1" y=".9" width="233" height="35" maskUnits="userSpaceOnUse">
      <g id="path-2-outside-2_1133_2483-7" data-name="path-2-outside-2 1133 2483">
        <rect class="cls-5" x="-1" y=".9" width="233" height="35"/>
        <path class="cls-3" d="M26.8,20.3c.8.9.7,2.7-.2,4.7-1.4,3.2-4.9,6.7-9.1,6.7h0c-4.9,0-5.8-5.5-5.9-8.8,0-.9,0-1.5,0-1.5,0-.3-.2-.4-.5-.4s-.4.2-.5.4c0,0,0,.6,0,1.5-.1,2.3-.8,7.7-4.6,7.7s-.4,0-.6,0c-3.5-.4-3.6-5.8-3.4-8.1.5-7.3,4.5-16.8,8.2-16.8s.3,0,.5,0c1.2.3,2.1.9,2.6,1.9,1.6,3.3-1.2,9.5-1.3,9.6-.1.3,0,.5.2.6.2,0,.5,0,.6-.2,1.7-3.1,7-11.2,10.5-11.2s1.4.4,2,1.3c.6,1,.7,2,.4,2.9-1.1,3.3-6.7,6.1-10,7.4l-2.5.9c-.2.1-.3.4-.2.6,0,.2.3.3.6.3l2.4-.9c1.4-.4,3-.5,4.5-.5,3,0,5.3.7,6.4,1.9Z"/>
        <path class="cls-3" d="M49.8,16.1c.8,4.6.2,8.4-1.5,10.4-.8,1-1.9,1.4-3.1,1.4-4.3,0-4.4-6.7-4.4-6.8,0-.2-.2-.4-.4-.4-.3,0-.4,0-.5.3,0,0-1.7,6-4.4,8.4-.8.7-1.8,1.2-2.8,1.2-2.1,0-4.5-1.9-4.5-7s1.6-8.1,4.2-12.1c2.5-3.9,5.4-6.3,7.5-6.3,4.5,0,8.9,4.8,9.9,10.9ZM41.2,17.7l.6-5.3c0-.3-.2-.5-.4-.5-.3,0-.5.2-.5.4l-.6,5.3c0,.3.2.5.4.5h0c.2,0,.4-.2.4-.4Z"/>
        <path class="cls-3" d="M62.7,5.5c.6,1.2.6,2.7.2,4.2-.2.7-.5,1.3-.9,1.9-1.2-2-2.8-3.1-4.9-3.1s-1.6.2-2.4.4c-.4.1-.7.3-1,.5,0-.8,0-1.6.3-2.3.7-2.4,2.7-4.1,4.9-4.1s.8,0,1.2.2c1.2.4,2.1,1.2,2.7,2.4ZM61.3,12.3c-.9.9-2.1,1.4-3.3,1.4s-.8,0-1.2-.2c-1.5-.4-2.6-1.7-3-3.3.4-.3.7-.4,1.1-.6.8-.3,1.5-.4,2.1-.4,2,0,3.4,1.3,4.2,3ZM62.8,18.7c.4,6.9-2,14-4.8,14.3,0,0-.2,0-.3,0-2.5,0-5.2-4.5-6.2-10.5-.7-4.4-.4-9.2,1.6-11.6.6,1.6,1.8,2.9,3.5,3.4.4.1.9.2,1.4.2,1.4,0,2.7-.5,3.7-1.5.8,2.1,1,4.4,1.1,5.5Z"/>
        <path class="cls-3" d="M85,11.1c1.8,3.6,1.3,9.4-1.2,13.6-1.9,3.2-4.6,5.1-7.8,5.3-1.8.1-3.1-.4-4-1.5-2.7-3.4-.4-11.2-.4-11.2.2-.7-.6-.7-1-.4-2.9,2.2-5.2,2.6-6.4,1.2-1.5-1.9-.9-6.7,2-9.4,2.5-2.3,6.9-3.3,11.1-2.5,3.6.7,6.4,2.5,7.6,5ZM76.3,21.8l.6-5.3c0-.3-.2-.5-.4-.5-.3,0-.5.2-.5.4l-.6,5.3c0,.3.2.5.4.5h0c.2,0,.4-.2.4-.4Z"/>
        <path class="cls-3" d="M102.7,9.9c.9,4.2-1,12.8-4.9,17.6-1.7,2.1-3.5,3.2-5.4,3.2s-2.1-.4-3.2-1c-3.7-2.3-3.5-6.6-2.7-9.8,1.7-6.8,7.6-14.3,11.5-14.6h.1c.8,0,3.6.3,4.5,4.6ZM95,21.5l.6-5.3c0-.3-.2-.5-.4-.5s-.5.2-.5.4l-.6,5.3c0,.3.1.5.4.5h0c.2,0,.4-.2.5-.4Z"/>
        <path class="cls-3" d="M119.9,14c1.5-.6,3.7-1.1,6.7-.8-1.3,1.2-3,1.9-4.5,1.9-1,0-1.7-.4-2-1,0,0,0,0,0,0ZM132.9,17.7c.8,3.7-1.7,8.7-5.4,11.1-3.5,2.3-8.5,2.3-11.3.2-1.3-1-2.6-2.9-1.3-6.3.7-1.9,1.8-3.1,3.1-3.9l.4-.2c3.6-1.9,8.2-.5,8.5-.4.3,0,.5,0,.6-.3,0-.3,0-.5-.3-.6,0,0-5.4-1.6-9.5.6-.6.4-3.3,1.1-5,0-1-.6-1.5-1.9-1.6-3.6-.3-4.8,3.8-8.2,7.6-9.8,3.9-1.6,7.8-1.5,9.3.2,1.4,1.5,1.6,3.6.6,5.8-.3.7-.7,1.3-1.2,1.9-3.4-.4-6,0-7.7.7-.2-1.5.5-3.4.9-4.1,0-.3,0-.5-.2-.6-.2,0-.5,0-.6.2l-3.7,7c-.1.2,0,.5.2.6.2.1.4,0,.6-.1,0,0,.7-.9,2.2-1.6,0,0,0,.1,0,.2.5.9,1.5,1.4,2.8,1.4,2,0,4.2-.9,5.8-2.6.1,0,.3,0,.4,0,2.7.4,4.3,1.9,4.8,4.2Z"/>
        <path class="cls-3" d="M153,7.8c1,2.4,0,5.9-1.6,7.7-.8,1-2,1.5-3.4,1.5s-3.4-.8-3.4-.8c-.2,0-.4,0-.5,0-.2.2-.2.4,0,.6,0,0,1.7,2.6,3.7,8.5.4,1.2.3,2.2-.4,3.1-.9,1.3-3,2.1-5.3,2.1s-4-.8-4.8-2c-2.4-3.8.9-11.5.9-11.6,0-.2,0-.4,0-.5,0,0-.2-.2-.3-.2h-.2c-.9.3-1.6.4-2.2.4s-1.5-.2-2-.7c-1.2-1.3-1.1-4.2-.9-6.9.3-3.5,5.7-4.2,10.2-4.2s5.1.2,6.8.4c1.7.2,2.9,1,3.4,2.4Z"/>
        <path class="cls-3" d="M175.1,14.5c.6,6.6-1.7,11.7-4.1,14.3-1.2,1.3-2.5,2.1-3.5,2-.6,0-1.1-.3-1.4-.7-1-1.2-.8-3.6-.8-3.7,0-.2-.1-.4-.3-.5,0,0,0,0-.2,0-.2,0-.3,0-.4.3,0,0-1.9,3.3-4.7,4.1-4,1.2-6.5-1.4-7-5.5-.5-4.5.9-13.8,4.1-17.4.9-1,1.9-1.4,2.9-1.3,4,.6,2.9,11.9,2.4,15.4-.2,1.3-.3,2.1-.3,2.1,0,.3.1.5.4.5.3,0,.5-.2.5-.4,0,0,0-.9.3-2.1.5-3,1.5-8.5,3-11.1,1-1.7,2.9-3,4.6-3,2.5,0,4.1,2.5,4.5,7Z"/>
        <path class="cls-3" d="M197.7,11.1c1.8,3.6,1.3,9.4-1.2,13.6-1.9,3.2-4.6,5.1-7.8,5.3-1.8.1-3.1-.4-4-1.5-2.7-3.4-.4-11.2-.4-11.2.2-.7-.6-.7-1-.4-2.9,2.2-5.2,2.6-6.4,1.2-1.5-1.9-.9-6.7,2-9.4,2.5-2.3,6.9-3.3,11.1-2.5,3.6.7,6.4,2.5,7.6,5ZM189.1,21.8l.6-5.3c0-.3-.2-.5-.4-.5-.3,0-.5.2-.5.4l-.6,5.3c0,.3.2.5.4.5h0c.2,0,.4-.2.4-.4Z"/>
        <path class="cls-3" d="M211.6,5.5c.6,1.2.6,2.7.2,4.2-.2.7-.5,1.3-.9,1.9-1.2-2-2.8-3.1-4.9-3.1s-1.6.2-2.4.4c-.4.1-.7.3-1,.5,0-.8,0-1.6.3-2.3.7-2.4,2.7-4.1,4.9-4.1s.8,0,1.2.2c1.2.4,2.1,1.2,2.7,2.4ZM210.3,12.3c-.9.9-2.1,1.4-3.3,1.4s-.8,0-1.2-.2c-1.5-.4-2.6-1.7-3-3.3.4-.3.7-.4,1.1-.6.8-.3,1.5-.4,2.1-.4,2,0,3.4,1.3,4.2,3ZM211.8,18.7c.4,6.9-2,14-4.8,14.3,0,0-.2,0-.3,0-2.5,0-5.2-4.5-6.2-10.5-.7-4.4-.4-9.2,1.6-11.6.6,1.6,1.8,2.9,3.5,3.4.4.1.9.2,1.4.2,1.4,0,2.7-.5,3.7-1.5.8,2.1,1,4.4,1.1,5.5Z"/>
        <path class="cls-3" d="M229.3,9.9c.9,4.2-1,12.8-4.9,17.6-1.7,2.1-3.5,3.2-5.4,3.2s-2.1-.4-3.2-1c-3.7-2.3-3.5-6.6-2.7-9.8,1.7-6.8,7.6-14.3,11.5-14.6h.1c.8,0,3.6.3,4.5,4.6ZM221.6,21.5l.6-5.3c0-.3-.2-.5-.4-.5-.3,0-.5.2-.5.4l-.6,5.3c0,.3.1.5.4.5h0c.2,0,.4-.2.5-.4Z"/>
      </g>
    </mask>
    <mask id="mask-7" x="-1" y=".9" width="233" height="35" maskUnits="userSpaceOnUse">
      <g id="path-2-outside-2_1133_2483-8" data-name="path-2-outside-2 1133 2483">
        <rect class="cls-5" x="-1" y=".9" width="233" height="35"/>
        <path class="cls-3" d="M26.8,20.3c.8.9.7,2.7-.2,4.7-1.4,3.2-4.9,6.7-9.1,6.7h0c-4.9,0-5.8-5.5-5.9-8.8,0-.9,0-1.5,0-1.5,0-.3-.2-.4-.5-.4s-.4.2-.5.4c0,0,0,.6,0,1.5-.1,2.3-.8,7.7-4.6,7.7s-.4,0-.6,0c-3.5-.4-3.6-5.8-3.4-8.1.5-7.3,4.5-16.8,8.2-16.8s.3,0,.5,0c1.2.3,2.1.9,2.6,1.9,1.6,3.3-1.2,9.5-1.3,9.6-.1.3,0,.5.2.6.2,0,.5,0,.6-.2,1.7-3.1,7-11.2,10.5-11.2s1.4.4,2,1.3c.6,1,.7,2,.4,2.9-1.1,3.3-6.7,6.1-10,7.4l-2.5.9c-.2.1-.3.4-.2.6,0,.2.3.3.6.3l2.4-.9c1.4-.4,3-.5,4.5-.5,3,0,5.3.7,6.4,1.9Z"/>
        <path class="cls-3" d="M49.8,16.1c.8,4.6.2,8.4-1.5,10.4-.8,1-1.9,1.4-3.1,1.4-4.3,0-4.4-6.7-4.4-6.8,0-.2-.2-.4-.4-.4-.3,0-.4,0-.5.3,0,0-1.7,6-4.4,8.4-.8.7-1.8,1.2-2.8,1.2-2.1,0-4.5-1.9-4.5-7s1.6-8.1,4.2-12.1c2.5-3.9,5.4-6.3,7.5-6.3,4.5,0,8.9,4.8,9.9,10.9ZM41.2,17.7l.6-5.3c0-.3-.2-.5-.4-.5-.3,0-.5.2-.5.4l-.6,5.3c0,.3.2.5.4.5h0c.2,0,.4-.2.4-.4Z"/>
        <path class="cls-3" d="M62.7,5.5c.6,1.2.6,2.7.2,4.2-.2.7-.5,1.3-.9,1.9-1.2-2-2.8-3.1-4.9-3.1s-1.6.2-2.4.4c-.4.1-.7.3-1,.5,0-.8,0-1.6.3-2.3.7-2.4,2.7-4.1,4.9-4.1s.8,0,1.2.2c1.2.4,2.1,1.2,2.7,2.4ZM61.3,12.3c-.9.9-2.1,1.4-3.3,1.4s-.8,0-1.2-.2c-1.5-.4-2.6-1.7-3-3.3.4-.3.7-.4,1.1-.6.8-.3,1.5-.4,2.1-.4,2,0,3.4,1.3,4.2,3ZM62.8,18.7c.4,6.9-2,14-4.8,14.3,0,0-.2,0-.3,0-2.5,0-5.2-4.5-6.2-10.5-.7-4.4-.4-9.2,1.6-11.6.6,1.6,1.8,2.9,3.5,3.4.4.1.9.2,1.4.2,1.4,0,2.7-.5,3.7-1.5.8,2.1,1,4.4,1.1,5.5Z"/>
        <path class="cls-3" d="M85,11.1c1.8,3.6,1.3,9.4-1.2,13.6-1.9,3.2-4.6,5.1-7.8,5.3-1.8.1-3.1-.4-4-1.5-2.7-3.4-.4-11.2-.4-11.2.2-.7-.6-.7-1-.4-2.9,2.2-5.2,2.6-6.4,1.2-1.5-1.9-.9-6.7,2-9.4,2.5-2.3,6.9-3.3,11.1-2.5,3.6.7,6.4,2.5,7.6,5ZM76.3,21.8l.6-5.3c0-.3-.2-.5-.4-.5-.3,0-.5.2-.5.4l-.6,5.3c0,.3.2.5.4.5h0c.2,0,.4-.2.4-.4Z"/>
        <path class="cls-3" d="M102.7,9.9c.9,4.2-1,12.8-4.9,17.6-1.7,2.1-3.5,3.2-5.4,3.2s-2.1-.4-3.2-1c-3.7-2.3-3.5-6.6-2.7-9.8,1.7-6.8,7.6-14.3,11.5-14.6h.1c.8,0,3.6.3,4.5,4.6ZM95,21.5l.6-5.3c0-.3-.2-.5-.4-.5s-.5.2-.5.4l-.6,5.3c0,.3.1.5.4.5h0c.2,0,.4-.2.5-.4Z"/>
        <path class="cls-3" d="M119.9,14c1.5-.6,3.7-1.1,6.7-.8-1.3,1.2-3,1.9-4.5,1.9-1,0-1.7-.4-2-1,0,0,0,0,0,0ZM132.9,17.7c.8,3.7-1.7,8.7-5.4,11.1-3.5,2.3-8.5,2.3-11.3.2-1.3-1-2.6-2.9-1.3-6.3.7-1.9,1.8-3.1,3.1-3.9l.4-.2c3.6-1.9,8.2-.5,8.5-.4.3,0,.5,0,.6-.3,0-.3,0-.5-.3-.6,0,0-5.4-1.6-9.5.6-.6.4-3.3,1.1-5,0-1-.6-1.5-1.9-1.6-3.6-.3-4.8,3.8-8.2,7.6-9.8,3.9-1.6,7.8-1.5,9.3.2,1.4,1.5,1.6,3.6.6,5.8-.3.7-.7,1.3-1.2,1.9-3.4-.4-6,0-7.7.7-.2-1.5.5-3.4.9-4.1,0-.3,0-.5-.2-.6-.2,0-.5,0-.6.2l-3.7,7c-.1.2,0,.5.2.6.2.1.4,0,.6-.1,0,0,.7-.9,2.2-1.6,0,0,0,.1,0,.2.5.9,1.5,1.4,2.8,1.4,2,0,4.2-.9,5.8-2.6.1,0,.3,0,.4,0,2.7.4,4.3,1.9,4.8,4.2Z"/>
        <path class="cls-3" d="M153,7.8c1,2.4,0,5.9-1.6,7.7-.8,1-2,1.5-3.4,1.5s-3.4-.8-3.4-.8c-.2,0-.4,0-.5,0-.2.2-.2.4,0,.6,0,0,1.7,2.6,3.7,8.5.4,1.2.3,2.2-.4,3.1-.9,1.3-3,2.1-5.3,2.1s-4-.8-4.8-2c-2.4-3.8.9-11.5.9-11.6,0-.2,0-.4,0-.5,0,0-.2-.2-.3-.2h-.2c-.9.3-1.6.4-2.2.4s-1.5-.2-2-.7c-1.2-1.3-1.1-4.2-.9-6.9.3-3.5,5.7-4.2,10.2-4.2s5.1.2,6.8.4c1.7.2,2.9,1,3.4,2.4Z"/>
        <path class="cls-3" d="M175.1,14.5c.6,6.6-1.7,11.7-4.1,14.3-1.2,1.3-2.5,2.1-3.5,2-.6,0-1.1-.3-1.4-.7-1-1.2-.8-3.6-.8-3.7,0-.2-.1-.4-.3-.5,0,0,0,0-.2,0-.2,0-.3,0-.4.3,0,0-1.9,3.3-4.7,4.1-4,1.2-6.5-1.4-7-5.5-.5-4.5.9-13.8,4.1-17.4.9-1,1.9-1.4,2.9-1.3,4,.6,2.9,11.9,2.4,15.4-.2,1.3-.3,2.1-.3,2.1,0,.3.1.5.4.5.3,0,.5-.2.5-.4,0,0,0-.9.3-2.1.5-3,1.5-8.5,3-11.1,1-1.7,2.9-3,4.6-3,2.5,0,4.1,2.5,4.5,7Z"/>
        <path class="cls-3" d="M197.7,11.1c1.8,3.6,1.3,9.4-1.2,13.6-1.9,3.2-4.6,5.1-7.8,5.3-1.8.1-3.1-.4-4-1.5-2.7-3.4-.4-11.2-.4-11.2.2-.7-.6-.7-1-.4-2.9,2.2-5.2,2.6-6.4,1.2-1.5-1.9-.9-6.7,2-9.4,2.5-2.3,6.9-3.3,11.1-2.5,3.6.7,6.4,2.5,7.6,5ZM189.1,21.8l.6-5.3c0-.3-.2-.5-.4-.5-.3,0-.5.2-.5.4l-.6,5.3c0,.3.2.5.4.5h0c.2,0,.4-.2.4-.4Z"/>
        <path class="cls-3" d="M211.6,5.5c.6,1.2.6,2.7.2,4.2-.2.7-.5,1.3-.9,1.9-1.2-2-2.8-3.1-4.9-3.1s-1.6.2-2.4.4c-.4.1-.7.3-1,.5,0-.8,0-1.6.3-2.3.7-2.4,2.7-4.1,4.9-4.1s.8,0,1.2.2c1.2.4,2.1,1.2,2.7,2.4ZM210.3,12.3c-.9.9-2.1,1.4-3.3,1.4s-.8,0-1.2-.2c-1.5-.4-2.6-1.7-3-3.3.4-.3.7-.4,1.1-.6.8-.3,1.5-.4,2.1-.4,2,0,3.4,1.3,4.2,3ZM211.8,18.7c.4,6.9-2,14-4.8,14.3,0,0-.2,0-.3,0-2.5,0-5.2-4.5-6.2-10.5-.7-4.4-.4-9.2,1.6-11.6.6,1.6,1.8,2.9,3.5,3.4.4.1.9.2,1.4.2,1.4,0,2.7-.5,3.7-1.5.8,2.1,1,4.4,1.1,5.5Z"/>
        <path class="cls-3" d="M229.3,9.9c.9,4.2-1,12.8-4.9,17.6-1.7,2.1-3.5,3.2-5.4,3.2s-2.1-.4-3.2-1c-3.7-2.3-3.5-6.6-2.7-9.8,1.7-6.8,7.6-14.3,11.5-14.6h.1c.8,0,3.6.3,4.5,4.6ZM221.6,21.5l.6-5.3c0-.3-.2-.5-.4-.5-.3,0-.5.2-.5.4l-.6,5.3c0,.3.1.5.4.5h0c.2,0,.4-.2.5-.4Z"/>
      </g>
    </mask>
    <mask id="mask-8" x="-1" y=".9" width="233" height="35" maskUnits="userSpaceOnUse">
      <g id="path-2-outside-2_1133_2483-9" data-name="path-2-outside-2 1133 2483">
        <rect class="cls-5" x="-1" y=".9" width="233" height="35"/>
        <path class="cls-3" d="M26.8,20.3c.8.9.7,2.7-.2,4.7-1.4,3.2-4.9,6.7-9.1,6.7h0c-4.9,0-5.8-5.5-5.9-8.8,0-.9,0-1.5,0-1.5,0-.3-.2-.4-.5-.4s-.4.2-.5.4c0,0,0,.6,0,1.5-.1,2.3-.8,7.7-4.6,7.7s-.4,0-.6,0c-3.5-.4-3.6-5.8-3.4-8.1.5-7.3,4.5-16.8,8.2-16.8s.3,0,.5,0c1.2.3,2.1.9,2.6,1.9,1.6,3.3-1.2,9.5-1.3,9.6-.1.3,0,.5.2.6.2,0,.5,0,.6-.2,1.7-3.1,7-11.2,10.5-11.2s1.4.4,2,1.3c.6,1,.7,2,.4,2.9-1.1,3.3-6.7,6.1-10,7.4l-2.5.9c-.2.1-.3.4-.2.6,0,.2.3.3.6.3l2.4-.9c1.4-.4,3-.5,4.5-.5,3,0,5.3.7,6.4,1.9Z"/>
        <path class="cls-3" d="M49.8,16.1c.8,4.6.2,8.4-1.5,10.4-.8,1-1.9,1.4-3.1,1.4-4.3,0-4.4-6.7-4.4-6.8,0-.2-.2-.4-.4-.4-.3,0-.4,0-.5.3,0,0-1.7,6-4.4,8.4-.8.7-1.8,1.2-2.8,1.2-2.1,0-4.5-1.9-4.5-7s1.6-8.1,4.2-12.1c2.5-3.9,5.4-6.3,7.5-6.3,4.5,0,8.9,4.8,9.9,10.9ZM41.2,17.7l.6-5.3c0-.3-.2-.5-.4-.5-.3,0-.5.2-.5.4l-.6,5.3c0,.3.2.5.4.5h0c.2,0,.4-.2.4-.4Z"/>
        <path class="cls-3" d="M62.7,5.5c.6,1.2.6,2.7.2,4.2-.2.7-.5,1.3-.9,1.9-1.2-2-2.8-3.1-4.9-3.1s-1.6.2-2.4.4c-.4.1-.7.3-1,.5,0-.8,0-1.6.3-2.3.7-2.4,2.7-4.1,4.9-4.1s.8,0,1.2.2c1.2.4,2.1,1.2,2.7,2.4ZM61.3,12.3c-.9.9-2.1,1.4-3.3,1.4s-.8,0-1.2-.2c-1.5-.4-2.6-1.7-3-3.3.4-.3.7-.4,1.1-.6.8-.3,1.5-.4,2.1-.4,2,0,3.4,1.3,4.2,3ZM62.8,18.7c.4,6.9-2,14-4.8,14.3,0,0-.2,0-.3,0-2.5,0-5.2-4.5-6.2-10.5-.7-4.4-.4-9.2,1.6-11.6.6,1.6,1.8,2.9,3.5,3.4.4.1.9.2,1.4.2,1.4,0,2.7-.5,3.7-1.5.8,2.1,1,4.4,1.1,5.5Z"/>
        <path class="cls-3" d="M85,11.1c1.8,3.6,1.3,9.4-1.2,13.6-1.9,3.2-4.6,5.1-7.8,5.3-1.8.1-3.1-.4-4-1.5-2.7-3.4-.4-11.2-.4-11.2.2-.7-.6-.7-1-.4-2.9,2.2-5.2,2.6-6.4,1.2-1.5-1.9-.9-6.7,2-9.4,2.5-2.3,6.9-3.3,11.1-2.5,3.6.7,6.4,2.5,7.6,5ZM76.3,21.8l.6-5.3c0-.3-.2-.5-.4-.5-.3,0-.5.2-.5.4l-.6,5.3c0,.3.2.5.4.5h0c.2,0,.4-.2.4-.4Z"/>
        <path class="cls-3" d="M102.7,9.9c.9,4.2-1,12.8-4.9,17.6-1.7,2.1-3.5,3.2-5.4,3.2s-2.1-.4-3.2-1c-3.7-2.3-3.5-6.6-2.7-9.8,1.7-6.8,7.6-14.3,11.5-14.6h.1c.8,0,3.6.3,4.5,4.6ZM95,21.5l.6-5.3c0-.3-.2-.5-.4-.5s-.5.2-.5.4l-.6,5.3c0,.3.1.5.4.5h0c.2,0,.4-.2.5-.4Z"/>
        <path class="cls-3" d="M119.9,14c1.5-.6,3.7-1.1,6.7-.8-1.3,1.2-3,1.9-4.5,1.9-1,0-1.7-.4-2-1,0,0,0,0,0,0ZM132.9,17.7c.8,3.7-1.7,8.7-5.4,11.1-3.5,2.3-8.5,2.3-11.3.2-1.3-1-2.6-2.9-1.3-6.3.7-1.9,1.8-3.1,3.1-3.9l.4-.2c3.6-1.9,8.2-.5,8.5-.4.3,0,.5,0,.6-.3,0-.3,0-.5-.3-.6,0,0-5.4-1.6-9.5.6-.6.4-3.3,1.1-5,0-1-.6-1.5-1.9-1.6-3.6-.3-4.8,3.8-8.2,7.6-9.8,3.9-1.6,7.8-1.5,9.3.2,1.4,1.5,1.6,3.6.6,5.8-.3.7-.7,1.3-1.2,1.9-3.4-.4-6,0-7.7.7-.2-1.5.5-3.4.9-4.1,0-.3,0-.5-.2-.6-.2,0-.5,0-.6.2l-3.7,7c-.1.2,0,.5.2.6.2.1.4,0,.6-.1,0,0,.7-.9,2.2-1.6,0,0,0,.1,0,.2.5.9,1.5,1.4,2.8,1.4,2,0,4.2-.9,5.8-2.6.1,0,.3,0,.4,0,2.7.4,4.3,1.9,4.8,4.2Z"/>
        <path class="cls-3" d="M153,7.8c1,2.4,0,5.9-1.6,7.7-.8,1-2,1.5-3.4,1.5s-3.4-.8-3.4-.8c-.2,0-.4,0-.5,0-.2.2-.2.4,0,.6,0,0,1.7,2.6,3.7,8.5.4,1.2.3,2.2-.4,3.1-.9,1.3-3,2.1-5.3,2.1s-4-.8-4.8-2c-2.4-3.8.9-11.5.9-11.6,0-.2,0-.4,0-.5,0,0-.2-.2-.3-.2h-.2c-.9.3-1.6.4-2.2.4s-1.5-.2-2-.7c-1.2-1.3-1.1-4.2-.9-6.9.3-3.5,5.7-4.2,10.2-4.2s5.1.2,6.8.4c1.7.2,2.9,1,3.4,2.4Z"/>
        <path class="cls-3" d="M175.1,14.5c.6,6.6-1.7,11.7-4.1,14.3-1.2,1.3-2.5,2.1-3.5,2-.6,0-1.1-.3-1.4-.7-1-1.2-.8-3.6-.8-3.7,0-.2-.1-.4-.3-.5,0,0,0,0-.2,0-.2,0-.3,0-.4.3,0,0-1.9,3.3-4.7,4.1-4,1.2-6.5-1.4-7-5.5-.5-4.5.9-13.8,4.1-17.4.9-1,1.9-1.4,2.9-1.3,4,.6,2.9,11.9,2.4,15.4-.2,1.3-.3,2.1-.3,2.1,0,.3.1.5.4.5.3,0,.5-.2.5-.4,0,0,0-.9.3-2.1.5-3,1.5-8.5,3-11.1,1-1.7,2.9-3,4.6-3,2.5,0,4.1,2.5,4.5,7Z"/>
        <path class="cls-3" d="M197.7,11.1c1.8,3.6,1.3,9.4-1.2,13.6-1.9,3.2-4.6,5.1-7.8,5.3-1.8.1-3.1-.4-4-1.5-2.7-3.4-.4-11.2-.4-11.2.2-.7-.6-.7-1-.4-2.9,2.2-5.2,2.6-6.4,1.2-1.5-1.9-.9-6.7,2-9.4,2.5-2.3,6.9-3.3,11.1-2.5,3.6.7,6.4,2.5,7.6,5ZM189.1,21.8l.6-5.3c0-.3-.2-.5-.4-.5-.3,0-.5.2-.5.4l-.6,5.3c0,.3.2.5.4.5h0c.2,0,.4-.2.4-.4Z"/>
        <path class="cls-3" d="M211.6,5.5c.6,1.2.6,2.7.2,4.2-.2.7-.5,1.3-.9,1.9-1.2-2-2.8-3.1-4.9-3.1s-1.6.2-2.4.4c-.4.1-.7.3-1,.5,0-.8,0-1.6.3-2.3.7-2.4,2.7-4.1,4.9-4.1s.8,0,1.2.2c1.2.4,2.1,1.2,2.7,2.4ZM210.3,12.3c-.9.9-2.1,1.4-3.3,1.4s-.8,0-1.2-.2c-1.5-.4-2.6-1.7-3-3.3.4-.3.7-.4,1.1-.6.8-.3,1.5-.4,2.1-.4,2,0,3.4,1.3,4.2,3ZM211.8,18.7c.4,6.9-2,14-4.8,14.3,0,0-.2,0-.3,0-2.5,0-5.2-4.5-6.2-10.5-.7-4.4-.4-9.2,1.6-11.6.6,1.6,1.8,2.9,3.5,3.4.4.1.9.2,1.4.2,1.4,0,2.7-.5,3.7-1.5.8,2.1,1,4.4,1.1,5.5Z"/>
        <path class="cls-3" d="M229.3,9.9c.9,4.2-1,12.8-4.9,17.6-1.7,2.1-3.5,3.2-5.4,3.2s-2.1-.4-3.2-1c-3.7-2.3-3.5-6.6-2.7-9.8,1.7-6.8,7.6-14.3,11.5-14.6h.1c.8,0,3.6.3,4.5,4.6ZM221.6,21.5l.6-5.3c0-.3-.2-.5-.4-.5-.3,0-.5.2-.5.4l-.6,5.3c0,.3.1.5.4.5h0c.2,0,.4-.2.5-.4Z"/>
      </g>
    </mask>
    <mask id="mask-9" x="-1" y=".9" width="233" height="35" maskUnits="userSpaceOnUse">
      <g id="path-2-outside-2_1133_2483-10" data-name="path-2-outside-2 1133 2483">
        <rect class="cls-5" x="-1" y=".9" width="233" height="35"/>
        <path class="cls-3" d="M26.8,20.3c.8.9.7,2.7-.2,4.7-1.4,3.2-4.9,6.7-9.1,6.7h0c-4.9,0-5.8-5.5-5.9-8.8,0-.9,0-1.5,0-1.5,0-.3-.2-.4-.5-.4s-.4.2-.5.4c0,0,0,.6,0,1.5-.1,2.3-.8,7.7-4.6,7.7s-.4,0-.6,0c-3.5-.4-3.6-5.8-3.4-8.1.5-7.3,4.5-16.8,8.2-16.8s.3,0,.5,0c1.2.3,2.1.9,2.6,1.9,1.6,3.3-1.2,9.5-1.3,9.6-.1.3,0,.5.2.6.2,0,.5,0,.6-.2,1.7-3.1,7-11.2,10.5-11.2s1.4.4,2,1.3c.6,1,.7,2,.4,2.9-1.1,3.3-6.7,6.1-10,7.4l-2.5.9c-.2.1-.3.4-.2.6,0,.2.3.3.6.3l2.4-.9c1.4-.4,3-.5,4.5-.5,3,0,5.3.7,6.4,1.9Z"/>
        <path class="cls-3" d="M49.8,16.1c.8,4.6.2,8.4-1.5,10.4-.8,1-1.9,1.4-3.1,1.4-4.3,0-4.4-6.7-4.4-6.8,0-.2-.2-.4-.4-.4-.3,0-.4,0-.5.3,0,0-1.7,6-4.4,8.4-.8.7-1.8,1.2-2.8,1.2-2.1,0-4.5-1.9-4.5-7s1.6-8.1,4.2-12.1c2.5-3.9,5.4-6.3,7.5-6.3,4.5,0,8.9,4.8,9.9,10.9ZM41.2,17.7l.6-5.3c0-.3-.2-.5-.4-.5-.3,0-.5.2-.5.4l-.6,5.3c0,.3.2.5.4.5h0c.2,0,.4-.2.4-.4Z"/>
        <path class="cls-3" d="M62.7,5.5c.6,1.2.6,2.7.2,4.2-.2.7-.5,1.3-.9,1.9-1.2-2-2.8-3.1-4.9-3.1s-1.6.2-2.4.4c-.4.1-.7.3-1,.5,0-.8,0-1.6.3-2.3.7-2.4,2.7-4.1,4.9-4.1s.8,0,1.2.2c1.2.4,2.1,1.2,2.7,2.4ZM61.3,12.3c-.9.9-2.1,1.4-3.3,1.4s-.8,0-1.2-.2c-1.5-.4-2.6-1.7-3-3.3.4-.3.7-.4,1.1-.6.8-.3,1.5-.4,2.1-.4,2,0,3.4,1.3,4.2,3ZM62.8,18.7c.4,6.9-2,14-4.8,14.3,0,0-.2,0-.3,0-2.5,0-5.2-4.5-6.2-10.5-.7-4.4-.4-9.2,1.6-11.6.6,1.6,1.8,2.9,3.5,3.4.4.1.9.2,1.4.2,1.4,0,2.7-.5,3.7-1.5.8,2.1,1,4.4,1.1,5.5Z"/>
        <path class="cls-3" d="M85,11.1c1.8,3.6,1.3,9.4-1.2,13.6-1.9,3.2-4.6,5.1-7.8,5.3-1.8.1-3.1-.4-4-1.5-2.7-3.4-.4-11.2-.4-11.2.2-.7-.6-.7-1-.4-2.9,2.2-5.2,2.6-6.4,1.2-1.5-1.9-.9-6.7,2-9.4,2.5-2.3,6.9-3.3,11.1-2.5,3.6.7,6.4,2.5,7.6,5ZM76.3,21.8l.6-5.3c0-.3-.2-.5-.4-.5-.3,0-.5.2-.5.4l-.6,5.3c0,.3.2.5.4.5h0c.2,0,.4-.2.4-.4Z"/>
        <path class="cls-3" d="M102.7,9.9c.9,4.2-1,12.8-4.9,17.6-1.7,2.1-3.5,3.2-5.4,3.2s-2.1-.4-3.2-1c-3.7-2.3-3.5-6.6-2.7-9.8,1.7-6.8,7.6-14.3,11.5-14.6h.1c.8,0,3.6.3,4.5,4.6ZM95,21.5l.6-5.3c0-.3-.2-.5-.4-.5s-.5.2-.5.4l-.6,5.3c0,.3.1.5.4.5h0c.2,0,.4-.2.5-.4Z"/>
        <path class="cls-3" d="M119.9,14c1.5-.6,3.7-1.1,6.7-.8-1.3,1.2-3,1.9-4.5,1.9-1,0-1.7-.4-2-1,0,0,0,0,0,0ZM132.9,17.7c.8,3.7-1.7,8.7-5.4,11.1-3.5,2.3-8.5,2.3-11.3.2-1.3-1-2.6-2.9-1.3-6.3.7-1.9,1.8-3.1,3.1-3.9l.4-.2c3.6-1.9,8.2-.5,8.5-.4.3,0,.5,0,.6-.3,0-.3,0-.5-.3-.6,0,0-5.4-1.6-9.5.6-.6.4-3.3,1.1-5,0-1-.6-1.5-1.9-1.6-3.6-.3-4.8,3.8-8.2,7.6-9.8,3.9-1.6,7.8-1.5,9.3.2,1.4,1.5,1.6,3.6.6,5.8-.3.7-.7,1.3-1.2,1.9-3.4-.4-6,0-7.7.7-.2-1.5.5-3.4.9-4.1,0-.3,0-.5-.2-.6-.2,0-.5,0-.6.2l-3.7,7c-.1.2,0,.5.2.6.2.1.4,0,.6-.1,0,0,.7-.9,2.2-1.6,0,0,0,.1,0,.2.5.9,1.5,1.4,2.8,1.4,2,0,4.2-.9,5.8-2.6.1,0,.3,0,.4,0,2.7.4,4.3,1.9,4.8,4.2Z"/>
        <path class="cls-3" d="M153,7.8c1,2.4,0,5.9-1.6,7.7-.8,1-2,1.5-3.4,1.5s-3.4-.8-3.4-.8c-.2,0-.4,0-.5,0-.2.2-.2.4,0,.6,0,0,1.7,2.6,3.7,8.5.4,1.2.3,2.2-.4,3.1-.9,1.3-3,2.1-5.3,2.1s-4-.8-4.8-2c-2.4-3.8.9-11.5.9-11.6,0-.2,0-.4,0-.5,0,0-.2-.2-.3-.2h-.2c-.9.3-1.6.4-2.2.4s-1.5-.2-2-.7c-1.2-1.3-1.1-4.2-.9-6.9.3-3.5,5.7-4.2,10.2-4.2s5.1.2,6.8.4c1.7.2,2.9,1,3.4,2.4Z"/>
        <path class="cls-3" d="M175.1,14.5c.6,6.6-1.7,11.7-4.1,14.3-1.2,1.3-2.5,2.1-3.5,2-.6,0-1.1-.3-1.4-.7-1-1.2-.8-3.6-.8-3.7,0-.2-.1-.4-.3-.5,0,0,0,0-.2,0-.2,0-.3,0-.4.3,0,0-1.9,3.3-4.7,4.1-4,1.2-6.5-1.4-7-5.5-.5-4.5.9-13.8,4.1-17.4.9-1,1.9-1.4,2.9-1.3,4,.6,2.9,11.9,2.4,15.4-.2,1.3-.3,2.1-.3,2.1,0,.3.1.5.4.5.3,0,.5-.2.5-.4,0,0,0-.9.3-2.1.5-3,1.5-8.5,3-11.1,1-1.7,2.9-3,4.6-3,2.5,0,4.1,2.5,4.5,7Z"/>
        <path class="cls-3" d="M197.7,11.1c1.8,3.6,1.3,9.4-1.2,13.6-1.9,3.2-4.6,5.1-7.8,5.3-1.8.1-3.1-.4-4-1.5-2.7-3.4-.4-11.2-.4-11.2.2-.7-.6-.7-1-.4-2.9,2.2-5.2,2.6-6.4,1.2-1.5-1.9-.9-6.7,2-9.4,2.5-2.3,6.9-3.3,11.1-2.5,3.6.7,6.4,2.5,7.6,5ZM189.1,21.8l.6-5.3c0-.3-.2-.5-.4-.5-.3,0-.5.2-.5.4l-.6,5.3c0,.3.2.5.4.5h0c.2,0,.4-.2.4-.4Z"/>
        <path class="cls-3" d="M211.6,5.5c.6,1.2.6,2.7.2,4.2-.2.7-.5,1.3-.9,1.9-1.2-2-2.8-3.1-4.9-3.1s-1.6.2-2.4.4c-.4.1-.7.3-1,.5,0-.8,0-1.6.3-2.3.7-2.4,2.7-4.1,4.9-4.1s.8,0,1.2.2c1.2.4,2.1,1.2,2.7,2.4ZM210.3,12.3c-.9.9-2.1,1.4-3.3,1.4s-.8,0-1.2-.2c-1.5-.4-2.6-1.7-3-3.3.4-.3.7-.4,1.1-.6.8-.3,1.5-.4,2.1-.4,2,0,3.4,1.3,4.2,3ZM211.8,18.7c.4,6.9-2,14-4.8,14.3,0,0-.2,0-.3,0-2.5,0-5.2-4.5-6.2-10.5-.7-4.4-.4-9.2,1.6-11.6.6,1.6,1.8,2.9,3.5,3.4.4.1.9.2,1.4.2,1.4,0,2.7-.5,3.7-1.5.8,2.1,1,4.4,1.1,5.5Z"/>
        <path class="cls-3" d="M229.3,9.9c.9,4.2-1,12.8-4.9,17.6-1.7,2.1-3.5,3.2-5.4,3.2s-2.1-.4-3.2-1c-3.7-2.3-3.5-6.6-2.7-9.8,1.7-6.8,7.6-14.3,11.5-14.6h.1c.8,0,3.6.3,4.5,4.6ZM221.6,21.5l.6-5.3c0-.3-.2-.5-.4-.5-.3,0-.5.2-.5.4l-.6,5.3c0,.3.1.5.4.5h0c.2,0,.4-.2.5-.4Z"/>
      </g>
    </mask>
    <mask id="mask-10" x="-1" y=".9" width="233" height="35" maskUnits="userSpaceOnUse">
      <g id="path-2-outside-2_1133_2483-11" data-name="path-2-outside-2 1133 2483">
        <rect class="cls-5" x="-1" y=".9" width="233" height="35"/>
        <path class="cls-3" d="M26.8,20.3c.8.9.7,2.7-.2,4.7-1.4,3.2-4.9,6.7-9.1,6.7h0c-4.9,0-5.8-5.5-5.9-8.8,0-.9,0-1.5,0-1.5,0-.3-.2-.4-.5-.4s-.4.2-.5.4c0,0,0,.6,0,1.5-.1,2.3-.8,7.7-4.6,7.7s-.4,0-.6,0c-3.5-.4-3.6-5.8-3.4-8.1.5-7.3,4.5-16.8,8.2-16.8s.3,0,.5,0c1.2.3,2.1.9,2.6,1.9,1.6,3.3-1.2,9.5-1.3,9.6-.1.3,0,.5.2.6.2,0,.5,0,.6-.2,1.7-3.1,7-11.2,10.5-11.2s1.4.4,2,1.3c.6,1,.7,2,.4,2.9-1.1,3.3-6.7,6.1-10,7.4l-2.5.9c-.2.1-.3.4-.2.6,0,.2.3.3.6.3l2.4-.9c1.4-.4,3-.5,4.5-.5,3,0,5.3.7,6.4,1.9Z"/>
        <path class="cls-3" d="M49.8,16.1c.8,4.6.2,8.4-1.5,10.4-.8,1-1.9,1.4-3.1,1.4-4.3,0-4.4-6.7-4.4-6.8,0-.2-.2-.4-.4-.4-.3,0-.4,0-.5.3,0,0-1.7,6-4.4,8.4-.8.7-1.8,1.2-2.8,1.2-2.1,0-4.5-1.9-4.5-7s1.6-8.1,4.2-12.1c2.5-3.9,5.4-6.3,7.5-6.3,4.5,0,8.9,4.8,9.9,10.9ZM41.2,17.7l.6-5.3c0-.3-.2-.5-.4-.5-.3,0-.5.2-.5.4l-.6,5.3c0,.3.2.5.4.5h0c.2,0,.4-.2.4-.4Z"/>
        <path class="cls-3" d="M62.7,5.5c.6,1.2.6,2.7.2,4.2-.2.7-.5,1.3-.9,1.9-1.2-2-2.8-3.1-4.9-3.1s-1.6.2-2.4.4c-.4.1-.7.3-1,.5,0-.8,0-1.6.3-2.3.7-2.4,2.7-4.1,4.9-4.1s.8,0,1.2.2c1.2.4,2.1,1.2,2.7,2.4ZM61.3,12.3c-.9.9-2.1,1.4-3.3,1.4s-.8,0-1.2-.2c-1.5-.4-2.6-1.7-3-3.3.4-.3.7-.4,1.1-.6.8-.3,1.5-.4,2.1-.4,2,0,3.4,1.3,4.2,3ZM62.8,18.7c.4,6.9-2,14-4.8,14.3,0,0-.2,0-.3,0-2.5,0-5.2-4.5-6.2-10.5-.7-4.4-.4-9.2,1.6-11.6.6,1.6,1.8,2.9,3.5,3.4.4.1.9.2,1.4.2,1.4,0,2.7-.5,3.7-1.5.8,2.1,1,4.4,1.1,5.5Z"/>
        <path class="cls-3" d="M85,11.1c1.8,3.6,1.3,9.4-1.2,13.6-1.9,3.2-4.6,5.1-7.8,5.3-1.8.1-3.1-.4-4-1.5-2.7-3.4-.4-11.2-.4-11.2.2-.7-.6-.7-1-.4-2.9,2.2-5.2,2.6-6.4,1.2-1.5-1.9-.9-6.7,2-9.4,2.5-2.3,6.9-3.3,11.1-2.5,3.6.7,6.4,2.5,7.6,5ZM76.3,21.8l.6-5.3c0-.3-.2-.5-.4-.5-.3,0-.5.2-.5.4l-.6,5.3c0,.3.2.5.4.5h0c.2,0,.4-.2.4-.4Z"/>
        <path class="cls-3" d="M102.7,9.9c.9,4.2-1,12.8-4.9,17.6-1.7,2.1-3.5,3.2-5.4,3.2s-2.1-.4-3.2-1c-3.7-2.3-3.5-6.6-2.7-9.8,1.7-6.8,7.6-14.3,11.5-14.6h.1c.8,0,3.6.3,4.5,4.6ZM95,21.5l.6-5.3c0-.3-.2-.5-.4-.5s-.5.2-.5.4l-.6,5.3c0,.3.1.5.4.5h0c.2,0,.4-.2.5-.4Z"/>
        <path class="cls-3" d="M119.9,14c1.5-.6,3.7-1.1,6.7-.8-1.3,1.2-3,1.9-4.5,1.9-1,0-1.7-.4-2-1,0,0,0,0,0,0ZM132.9,17.7c.8,3.7-1.7,8.7-5.4,11.1-3.5,2.3-8.5,2.3-11.3.2-1.3-1-2.6-2.9-1.3-6.3.7-1.9,1.8-3.1,3.1-3.9l.4-.2c3.6-1.9,8.2-.5,8.5-.4.3,0,.5,0,.6-.3,0-.3,0-.5-.3-.6,0,0-5.4-1.6-9.5.6-.6.4-3.3,1.1-5,0-1-.6-1.5-1.9-1.6-3.6-.3-4.8,3.8-8.2,7.6-9.8,3.9-1.6,7.8-1.5,9.3.2,1.4,1.5,1.6,3.6.6,5.8-.3.7-.7,1.3-1.2,1.9-3.4-.4-6,0-7.7.7-.2-1.5.5-3.4.9-4.1,0-.3,0-.5-.2-.6-.2,0-.5,0-.6.2l-3.7,7c-.1.2,0,.5.2.6.2.1.4,0,.6-.1,0,0,.7-.9,2.2-1.6,0,0,0,.1,0,.2.5.9,1.5,1.4,2.8,1.4,2,0,4.2-.9,5.8-2.6.1,0,.3,0,.4,0,2.7.4,4.3,1.9,4.8,4.2Z"/>
        <path class="cls-3" d="M153,7.8c1,2.4,0,5.9-1.6,7.7-.8,1-2,1.5-3.4,1.5s-3.4-.8-3.4-.8c-.2,0-.4,0-.5,0-.2.2-.2.4,0,.6,0,0,1.7,2.6,3.7,8.5.4,1.2.3,2.2-.4,3.1-.9,1.3-3,2.1-5.3,2.1s-4-.8-4.8-2c-2.4-3.8.9-11.5.9-11.6,0-.2,0-.4,0-.5,0,0-.2-.2-.3-.2h-.2c-.9.3-1.6.4-2.2.4s-1.5-.2-2-.7c-1.2-1.3-1.1-4.2-.9-6.9.3-3.5,5.7-4.2,10.2-4.2s5.1.2,6.8.4c1.7.2,2.9,1,3.4,2.4Z"/>
        <path class="cls-3" d="M175.1,14.5c.6,6.6-1.7,11.7-4.1,14.3-1.2,1.3-2.5,2.1-3.5,2-.6,0-1.1-.3-1.4-.7-1-1.2-.8-3.6-.8-3.7,0-.2-.1-.4-.3-.5,0,0,0,0-.2,0-.2,0-.3,0-.4.3,0,0-1.9,3.3-4.7,4.1-4,1.2-6.5-1.4-7-5.5-.5-4.5.9-13.8,4.1-17.4.9-1,1.9-1.4,2.9-1.3,4,.6,2.9,11.9,2.4,15.4-.2,1.3-.3,2.1-.3,2.1,0,.3.1.5.4.5.3,0,.5-.2.5-.4,0,0,0-.9.3-2.1.5-3,1.5-8.5,3-11.1,1-1.7,2.9-3,4.6-3,2.5,0,4.1,2.5,4.5,7Z"/>
        <path class="cls-3" d="M197.7,11.1c1.8,3.6,1.3,9.4-1.2,13.6-1.9,3.2-4.6,5.1-7.8,5.3-1.8.1-3.1-.4-4-1.5-2.7-3.4-.4-11.2-.4-11.2.2-.7-.6-.7-1-.4-2.9,2.2-5.2,2.6-6.4,1.2-1.5-1.9-.9-6.7,2-9.4,2.5-2.3,6.9-3.3,11.1-2.5,3.6.7,6.4,2.5,7.6,5ZM189.1,21.8l.6-5.3c0-.3-.2-.5-.4-.5-.3,0-.5.2-.5.4l-.6,5.3c0,.3.2.5.4.5h0c.2,0,.4-.2.4-.4Z"/>
        <path class="cls-3" d="M211.6,5.5c.6,1.2.6,2.7.2,4.2-.2.7-.5,1.3-.9,1.9-1.2-2-2.8-3.1-4.9-3.1s-1.6.2-2.4.4c-.4.1-.7.3-1,.5,0-.8,0-1.6.3-2.3.7-2.4,2.7-4.1,4.9-4.1s.8,0,1.2.2c1.2.4,2.1,1.2,2.7,2.4ZM210.3,12.3c-.9.9-2.1,1.4-3.3,1.4s-.8,0-1.2-.2c-1.5-.4-2.6-1.7-3-3.3.4-.3.7-.4,1.1-.6.8-.3,1.5-.4,2.1-.4,2,0,3.4,1.3,4.2,3ZM211.8,18.7c.4,6.9-2,14-4.8,14.3,0,0-.2,0-.3,0-2.5,0-5.2-4.5-6.2-10.5-.7-4.4-.4-9.2,1.6-11.6.6,1.6,1.8,2.9,3.5,3.4.4.1.9.2,1.4.2,1.4,0,2.7-.5,3.7-1.5.8,2.1,1,4.4,1.1,5.5Z"/>
        <path class="cls-3" d="M229.3,9.9c.9,4.2-1,12.8-4.9,17.6-1.7,2.1-3.5,3.2-5.4,3.2s-2.1-.4-3.2-1c-3.7-2.3-3.5-6.6-2.7-9.8,1.7-6.8,7.6-14.3,11.5-14.6h.1c.8,0,3.6.3,4.5,4.6ZM221.6,21.5l.6-5.3c0-.3-.2-.5-.4-.5-.3,0-.5.2-.5.4l-.6,5.3c0,.3.1.5.4.5h0c.2,0,.4-.2.5-.4Z"/>
      </g>
    </mask>
  </defs>
  <path class="cls-6" d="M27.6,24c.8.9.7,2.7-.2,4.7-1.4,3.2-4.9,6.7-9.1,6.7h0c-4.9,0-5.8-5.5-5.9-8.8,0-.9,0-1.5,0-1.5,0-.3-.2-.4-.5-.4s-.4.2-.5.4c0,0,0,.6,0,1.5-.1,2.3-.8,7.7-4.6,7.7s-.4,0-.6,0c-3.5-.4-3.6-5.8-3.4-8.1.5-7.3,4.5-16.8,8.2-16.8s.3,0,.5,0c1.2.3,2.1.9,2.6,1.9,1.6,3.3-1.2,9.5-1.3,9.6-.1.3,0,.5.2.6.2,0,.5,0,.6-.2,1.7-3.1,7-11.2,10.5-11.2s1.4.4,2,1.3c.6,1,.7,2,.4,2.9-1.1,3.3-6.7,6.1-10,7.4l-2.5.9c-.2.1-.3.4-.2.6,0,.2.3.3.6.3l2.4-.9c1.4-.4,3-.5,4.5-.5,3,0,5.3.7,6.4,1.9Z"/>
  <path class="cls-6" d="M50.6,19.8c.8,4.6.2,8.4-1.5,10.4-.8,1-1.9,1.4-3.1,1.4-4.3,0-4.4-6.7-4.4-6.8,0-.2-.2-.4-.4-.4-.3,0-.4,0-.5.3,0,0-1.7,6-4.4,8.4-.8.7-1.8,1.2-2.8,1.2-2.1,0-4.5-1.9-4.5-7s1.6-8.1,4.2-12.1c2.5-3.9,5.4-6.3,7.5-6.3,4.5,0,8.9,4.8,9.9,10.9ZM42,21.3l.6-5.3c0-.3-.2-.5-.4-.5-.3,0-.5.2-.5.4l-.6,5.3c0,.3.2.5.4.5h0c.2,0,.4-.2.4-.4Z"/>
  <path class="cls-6" d="M63.4,9.2c.6,1.2.6,2.7.2,4.2-.2.7-.5,1.3-.9,1.9-1.2-2-2.8-3.1-4.9-3.1s-1.6.2-2.4.4c-.4.1-.7.3-1,.5,0-.8,0-1.6.3-2.3.7-2.4,2.7-4.1,4.9-4.1s.8,0,1.2.2c1.2.4,2.1,1.2,2.7,2.4ZM62.1,16c-.9.9-2.1,1.4-3.3,1.4s-.8,0-1.2-.2c-1.5-.4-2.6-1.7-3-3.3.4-.3.7-.4,1.1-.6.8-.3,1.5-.4,2.1-.4,2,0,3.4,1.3,4.2,3ZM63.6,22.4c.4,6.9-2,14-4.8,14.3,0,0-.2,0-.3,0-2.5,0-5.2-4.5-6.2-10.5-.7-4.4-.4-9.2,1.6-11.6.6,1.6,1.8,2.9,3.5,3.4.4.1.9.2,1.4.2,1.4,0,2.7-.5,3.7-1.5.8,2.1,1,4.4,1.1,5.5Z"/>
  <path class="cls-6" d="M85.7,14.8c1.8,3.6,1.3,9.4-1.2,13.6-1.9,3.2-4.6,5.1-7.8,5.3-1.8.1-3.1-.4-4-1.5-2.7-3.4-.4-11.2-.4-11.2.2-.7-.6-.7-1-.4-2.9,2.2-5.2,2.6-6.4,1.2-1.5-1.9-.9-6.7,2-9.4,2.5-2.3,6.9-3.3,11.1-2.5,3.6.7,6.4,2.5,7.6,5ZM77.1,25.5l.6-5.3c0-.3-.2-.5-.4-.5-.3,0-.5.2-.5.4l-.6,5.3c0,.3.2.5.4.5h0c.2,0,.4-.2.4-.4Z"/>
  <path class="cls-6" d="M103.4,13.5c.9,4.2-1,12.8-4.9,17.6-1.7,2.1-3.5,3.2-5.4,3.2s-2.1-.4-3.2-1c-3.7-2.3-3.5-6.6-2.7-9.8,1.7-6.8,7.6-14.3,11.5-14.6h.1c.8,0,3.6.3,4.5,4.6ZM95.8,25.2l.6-5.3c0-.3-.2-.5-.4-.5-.3,0-.5.2-.5.4l-.6,5.3c0,.3.1.5.4.5h0c.2,0,.4-.2.5-.4Z"/>
  <path class="cls-6" d="M120.6,17.7c1.5-.6,3.7-1.1,6.7-.8-1.3,1.2-3,1.9-4.5,1.9-1,0-1.7-.4-2-1,0,0,0,0,0,0ZM133.6,21.4c.8,3.7-1.7,8.7-5.4,11.1-3.5,2.3-8.5,2.3-11.3.2-1.3-1-2.6-2.9-1.3-6.3.7-1.9,1.8-3.1,3.1-3.9l.4-.2c3.6-1.9,8.2-.5,8.5-.4.3,0,.5,0,.6-.3,0-.3,0-.5-.3-.6,0,0-5.4-1.6-9.5.6-.6.4-3.3,1.1-5,0-1-.6-1.5-1.9-1.6-3.6-.3-4.8,3.8-8.2,7.6-9.8,3.9-1.6,7.8-1.5,9.3.2,1.4,1.5,1.6,3.6.6,5.8-.3.7-.7,1.3-1.2,1.9-3.4-.4-6,0-7.7.7-.2-1.5.5-3.4.9-4.1,0-.3,0-.5-.2-.6-.2,0-.5,0-.6.2l-3.7,7c-.1.2,0,.5.2.6.2.1.4,0,.6-.1,0,0,.7-.9,2.2-1.6,0,0,0,.1,0,.2.5.9,1.5,1.4,2.8,1.4,2,0,4.2-.9,5.8-2.6.1,0,.3,0,.4,0,2.7.4,4.3,1.9,4.8,4.2Z"/>
  <path class="cls-6" d="M153.8,11.5c1,2.4,0,5.9-1.6,7.7-.8,1-2,1.5-3.4,1.5s-3.4-.8-3.4-.8c-.2,0-.4,0-.5,0-.2.2-.2.4,0,.6,0,0,1.7,2.6,3.7,8.5.4,1.2.3,2.2-.4,3.1-.9,1.3-3,2.1-5.3,2.1s-4-.8-4.8-2c-2.4-3.8.9-11.5.9-11.6,0-.2,0-.4,0-.5,0,0-.2-.2-.3-.2h-.2c-.9.3-1.6.4-2.2.4s-1.5-.2-2-.7c-1.2-1.3-1.1-4.2-.9-6.9.3-3.5,5.7-4.2,10.2-4.2s5.1.2,6.8.4c1.7.2,2.9,1,3.4,2.4Z"/>
  <path class="cls-6" d="M175.8,18.1c.6,6.6-1.7,11.7-4.1,14.3-1.2,1.3-2.5,2.1-3.5,2-.6,0-1.1-.3-1.4-.7-1-1.2-.8-3.6-.8-3.7,0-.2-.1-.4-.3-.5,0,0,0,0-.2,0-.2,0-.3,0-.4.3,0,0-1.9,3.3-4.7,4.1-4,1.2-6.5-1.4-7-5.5-.5-4.5.9-13.8,4.1-17.4.9-1,1.9-1.4,2.9-1.3,4,.6,2.9,11.9,2.4,15.4-.2,1.3-.3,2.1-.3,2.1,0,.3.1.5.4.5.3,0,.5-.2.5-.4,0,0,0-.9.3-2.1.5-3,1.5-8.5,3-11.1,1-1.7,2.9-3,4.6-3,2.5,0,4.1,2.5,4.5,7Z"/>
  <path class="cls-6" d="M198.5,14.8c1.8,3.6,1.3,9.4-1.2,13.6-1.9,3.2-4.6,5.1-7.8,5.3-1.8.1-3.1-.4-4-1.5-2.7-3.4-.4-11.2-.4-11.2.2-.7-.6-.7-1-.4-2.9,2.2-5.2,2.6-6.4,1.2-1.5-1.9-.9-6.7,2-9.4,2.5-2.3,6.9-3.3,11.1-2.5,3.6.7,6.4,2.5,7.6,5ZM189.9,25.5l.6-5.3c0-.3-.2-.5-.4-.5-.3,0-.5.2-.5.4l-.6,5.3c0,.3.2.5.4.5h0c.2,0,.4-.2.4-.4Z"/>
  <path class="cls-6" d="M212.4,9.2c.6,1.2.6,2.7.2,4.2-.2.7-.5,1.3-.9,1.9-1.2-2-2.8-3.1-4.9-3.1s-1.6.2-2.4.4c-.4.1-.7.3-1,.5,0-.8,0-1.6.3-2.3.7-2.4,2.7-4.1,4.9-4.1s.8,0,1.2.2c1.2.4,2.1,1.2,2.7,2.4ZM211.1,16c-.9.9-2.1,1.4-3.3,1.4s-.8,0-1.2-.2c-1.5-.4-2.6-1.7-3-3.3.4-.3.7-.4,1.1-.6.8-.3,1.5-.4,2.1-.4,2,0,3.4,1.3,4.2,3ZM212.5,22.4c.4,6.9-2,14-4.8,14.3,0,0-.2,0-.3,0-2.5,0-5.2-4.5-6.2-10.5-.7-4.4-.4-9.2,1.6-11.6.6,1.6,1.8,2.9,3.5,3.4.4.1.9.2,1.4.2,1.4,0,2.7-.5,3.7-1.5.8,2.1,1,4.4,1.1,5.5Z"/>
  <path class="cls-6" d="M230.1,13.5c.9,4.2-1,12.8-4.9,17.6-1.7,2.1-3.5,3.2-5.4,3.2s-2.1-.4-3.2-1c-3.7-2.3-3.5-6.6-2.7-9.8,1.7-6.8,7.6-14.3,11.5-14.6h.1c.8,0,3.6.3,4.5,4.6ZM222.4,25.2l.6-5.3c0-.3-.2-.5-.4-.5-.3,0-.5.2-.5.4l-.6,5.3c0,.3.1.5.4.5h0c.2,0,.4-.2.5-.4Z"/>
  <g>
    <path class="cls-6" d="M77.6,17.7c-1.3-.2-2.6.8-2.7,2.2l-.6,5.3c-.2,1.3.8,2.6,2.2,2.7,0,0,.2,0,.3,0,1.3,0,2.3-1,2.4-2.2l.6-5.2c0-.7-.1-1.3-.5-1.9-.4-.5-1-.8-1.6-.9Z"/>
    <path class="cls-6" d="M105.4,13.1c-1-4.6-4-6.2-6.5-6.2h-.1s0,0-.1,0c-3.6.3-7.6,4.3-10.3,9.1-.2-.7-.4-1.5-.8-2.1,0,0,0,0,0,0-1.5-3.1-4.8-5.3-9.1-6.1-4.8-.9-9.5.2-12.6,2.8,0-.8-.3-1.6-.6-2.3-.8-1.7-2.2-3-3.9-3.5-.6-.2-1.2-.3-1.8-.3-3.1,0-5.9,2.3-6.8,5.6-.3,1-.4,2.1-.3,3.1,0,0,0,.1,0,.2,0,0,0,0,0,.1-.5.5-.8,1.1-1.1,1.8-2.1-4.9-6.3-8.3-10.6-8.3s-6.2,2.6-9.1,7.3c-1.6,2.4-2.8,5.1-3.5,7.6-1.1-.7-2.6-1.2-4.3-1.5,2.1-1.4,3.9-3.2,4.6-5.3.5-1.6.3-3.1-.6-4.6-1.2-1.9-2.6-2.3-3.7-2.3-2.5,0-5.3,2.5-7.5,5.3,0-1-.2-2-.7-2.9-.5-1.1-1.6-2.5-4-3-.4,0-.7,0-.9,0C5.5,7.3,1.3,18.3.8,26c-.5,8.3,3,10,5.1,10.2.4,0,.7,0,.9,0,2.1,0,3.8-1.1,4.9-3,1.3,2.7,3.5,4.1,6.5,4.2h.1c4,0,7.4-2.5,9.5-5.4,1.2,3,3.4,4.3,5.7,4.3s3-.6,4.1-1.7c1.2-1.1,2.3-2.8,3.1-4.5.9,1.9,2.6,3.5,5.2,3.5s3.5-.7,4.6-2.1c.2-.3.5-.6.7-.9,1.4,4.5,3.9,8.2,7.2,8.2s.3,0,.5,0c0,0,0,0,0,0,4.4-.4,6.5-8.1,6.6-14.4,1,.3,2.4.2,4.1-.6-.5,3.2-.5,7.1,1.5,9.6,1.2,1.5,2.9,2.3,5,2.3s.5,0,.7,0c3.4-.2,6.4-1.9,8.6-4.9.7,1.8,1.8,3.3,3.5,4.3,1.4.9,2.8,1.3,4.2,1.3,2.5,0,4.8-1.3,6.9-3.9,4.2-5.3,6.3-14.5,5.3-19.3,0,0,0,0,0,0ZM11,19.9c-.5,1-.3,2,.4,2.8-1,.2-1.7,1-1.9,2.1,0,0,0,.2,0,.2,0,.2,0,.7,0,1.5,0,.8-.4,5.7-2.6,5.7,0,0-.2,0-.3,0-1.5-.2-1.8-3.4-1.7-6,.5-7.7,4.5-14.9,6.2-14.9s0,0,0,0,0,0,0,0c.8.2,1,.5,1.2.8.9,1.9-.5,6.1-1.3,7.8ZM24,12s.1,0,.3.4c.3.5.3.9.2,1.3-.6,1.9-4,4.1-7.3,5.5,2.6-3.9,5.6-7.2,6.8-7.2ZM25.6,27.9c-1.2,2.7-4.1,5.5-7.4,5.5-3.1,0-3.8-3.7-3.9-6.8,0-.4,0-.8,0-1.1.1,0,.2,0,.3,0,0,0,.2,0,.2,0l2.3-.9c1.2-.4,2.8-.4,3.9-.4,2.8,0,4.4.7,4.9,1.2.1.2.1,1.2-.5,2.6ZM47.5,28.9c-.4.5-.9.7-1.6.7-2.2,0-2.4-4.8-2.4-4.8,0-.6-.2-1.2-.6-1.6.5-.4.9-1,1-1.6,0,0,0,0,0,0l.6-5.3c0-.6,0-1.3-.5-1.8-.4-.5-1-.9-1.7-.9-.6,0-1.3,0-1.8.5-.5.4-.9,1-.9,1.7l-.6,5.3c0,.7.1,1.4.6,1.9-.4.3-.7.7-.9,1.3,0,0,0,0,0,0-1.1,3.4-2.5,6.3-3.8,7.4-.4.4-1,.6-1.4.6-1.2,0-2.5-1.5-2.5-5s1.5-7.3,3.8-11c2.6-4,4.9-5.4,5.8-5.4,3.5,0,7.1,4.1,7.9,9.2,0,0,0,0,0,0,.8,4.7,0,7.6-1,8.8ZM58.6,34.7s0,0-.1,0c-.9-.2-3.2-3.2-4.2-8.8-.5-2.8-.5-5.3,0-7.3.7.6,1.6,1.1,2.6,1.4,1.4.4,3,.3,4.5-.2.1.8.3,1.7.3,2.6.4,6.8-1.9,11.9-3,12.2ZM57.6,15c.5,0,1,0,1.6.4-.3,0-.6,0-1,0-.2,0-.4-.2-.6-.3ZM57.9,10.1c-.2,0-.5,0-.7,0,.6-1,1.5-1.6,2.5-1.6s.3,0,.6.1c.6.2,1.1.6,1.4,1.3,0,0,0,0,0,0,.2.4.3.9.3,1.3-1.2-.8-2.6-1.3-4.1-1.3ZM82.9,27.4c-1.5,2.6-3.7,4.1-6.2,4.3-1.6.1-2.1-.5-2.3-.7-1.2-1.4-1.2-5.1,0-9.4,0,0,0,0,0-.1.3-1,0-2-.9-2.6-1-.7-2.4-.6-3.2,0,0,0,0,0,0,0-2.3,1.7-3.4,1.7-3.6,1.5-.7-.8-.5-4.5,1.8-6.7,2.1-1.9,5.8-2.7,9.4-2,3,.6,5.3,2,6.2,3.9,1.5,3,1,8.1-1.1,11.7ZM97,29.9c-1.3,1.6-2.6,2.4-3.8,2.4s-1.4-.2-2.1-.7c-2.1-1.3-2.8-3.9-1.8-7.6,1.6-6.7,7.1-12.8,9.6-13.1h0c.6,0,1.9.3,2.6,3,.8,3.7-1,11.7-4.5,15.9Z"/>
    <path class="cls-6" d="M96.2,17.4c-1.3-.2-2.6.8-2.7,2.2l-.6,5.3c-.2,1.3.8,2.6,2.1,2.7,0,0,.2,0,.3,0,1.2,0,2.3-.9,2.5-2.2,0,0,0,0,0,0l.6-5.3c.2-1.4-.8-2.6-2.2-2.8Z"/>
    <path class="cls-6" d="M190.3,17.7c-.7,0-1.3,0-1.8.5-.5.4-.9,1-.9,1.7l-.6,5.3c-.2,1.3.8,2.6,2.2,2.7,0,0,.2,0,.3,0,1.3,0,2.3-1,2.4-2.2l.6-5.2c0-.6,0-1.3-.5-1.8-.4-.5-1-.9-1.7-.9Z"/>
    <path class="cls-6" d="M222.9,17.4c-1.3-.2-2.6.8-2.7,2.2l-.6,5.3c-.2,1.3.8,2.6,2.1,2.7,0,0,.2,0,.3,0,1.2,0,2.3-.9,2.5-2.2,0,0,0,0,0,0l.6-5.3c.2-1.4-.8-2.6-2.2-2.8Z"/>
    <path class="cls-6" d="M232,13.1s0,0,0,0c-1-4.6-4-6.2-6.5-6.2h-.1s0,0-.1,0c-4,.3-8.7,5.5-11.4,11-.1-.6-.3-1.1-.5-1.6.5-.7.9-1.6,1.2-2.4.6-1.9.4-3.9-.3-5.5-.8-1.7-2.2-3-3.9-3.5-.6-.2-1.2-.3-1.8-.3-3.1,0-5.9,2.3-6.8,5.6-.3,1-.4,2.1-.3,3.1,0,0,0,.1,0,.2,0,0,0,0,0,.1-.3.3-.5.7-.8,1.1,0-.2-.2-.5-.3-.7,0,0,0,0,0,0-1.5-3.1-4.8-5.3-9.1-6.1-4.9-.9-9.8.3-12.8,3-.7.6-1.3,1.4-1.8,2.2-1.6-3.4-4.1-3.8-5.3-3.8-2.4,0-5.1,1.7-6.4,4,0,0,0,0,0,0-.6-2.9-1.8-5.1-4.3-5.5-1.2-.1-2.9,0-4.6,2-.2.2-.3.4-.5.6-.9-1.8-2.6-3-4.9-3.3-1.7-.2-4.3-.4-7-.4-6.4,0-10.3,1.3-11.7,4-.2-1.3-.7-2.5-1.6-3.5-2.2-2.4-6.8-2.7-11.6-.7-4.5,1.9-9.2,5.9-8.9,11.8.2,3,1.5,4.5,2.6,5.2.7.4,1.4.7,2.1.8-.3.5-.5,1-.7,1.6-1.3,3.4-.6,6.6,2,8.5,1.7,1.3,4,2,6.5,2s5-.7,7.1-2.1c4-2.6,6.6-7.5,6.5-11.7.1,0,.3,0,.4,0h0c-1,3.2-1.8,7.7.2,10.8,1.1,1.8,3.6,3,6.5,3s5.6-1.1,6.9-3c.7-1,1.4-2.6.6-4.9-.7-2.1-1.5-4.1-2.3-5.8.2,0,.5,0,.7,0,1,0,1.9-.2,2.7-.5-.3,2.5-.4,4.8-.2,6.6.3,2.9,1.6,5.2,3.5,6.5,1.2.8,3.2,1.6,6,.7,1.4-.4,2.6-1.2,3.6-2.1.2.5.4.9.7,1.3,0,0,0,0,0,0,.8.8,1.7,1.3,2.8,1.3,0,0,0,0,.1,0,1.6,0,3.4-1,4.9-2.7,1.8-2,3.7-5.4,4.4-9.7,1.1.5,2.7.7,4.9-.3-.5,3.2-.5,7.1,1.5,9.6,1.2,1.5,2.9,2.3,5,2.3s.5,0,.7,0c3.9-.2,7.2-2.5,9.4-6.3.2-.3.4-.7.6-1.1,1.2,5.4,4,10.5,7.8,10.5s.3,0,.5,0c0,0,0,0,0,0,2.4-.2,4.2-2.7,5.3-5.9.6.9,1.4,1.6,2.4,2.2,1.4.8,2.8,1.3,4.2,1.3,2.5,0,4.8-1.3,6.9-3.9,4.2-5.3,6.3-14.5,5.3-19.3ZM131.1,15.1c0,0,0-.1,0-.2,0,.3,0,.6,0,.9-.1,0-.2,0-.3-.1,0-.2.2-.4.2-.5ZM115,18.3c-.3.6-.4,1.2-.2,1.8-.1,0-.2,0-.3-.1-.5-.4-.7-1.4-.7-2-.2-3.8,3.2-6.5,6.4-7.9,1.8-.7,3.3-1,4.5-1s2.2.3,2.6.7c1.1,1.2.7,2.6.2,3.7,0,.2-.2.4-.3.5-1.5-.1-3,0-4.4.1,0-.2.2-.4.2-.6,0,0,0-.1,0-.2.4-1.2,0-2.5-1.1-3.1,0,0-.1,0-.2-.1-1.2-.5-2.5,0-3.2,1.1l-3.7,7ZM127.1,30.8c-2.7,1.8-6.9,1.9-8.9.3-.7-.6-1.6-1.6-.7-4,.5-1.3,1.2-2.3,2.1-2.8l.4-.2c1.1-.6,2.4-.8,3.5-.8,1.8,0,3.3.5,3.3.5,0,0,.1,0,.2,0,1.3.3,2.6-.4,3-1.7.2-.6.2-1.3-.2-1.9-.2-.4-.5-.7-.8-.9,0,0,0,0,0,0,1.9.5,2.4,1.6,2.6,2.5h0c.6,2.9-1.5,7-4.6,9.1ZM148.8,18.7c-.4,0-1.3,0-2.5-.6,0,0,0,0,0,0-1-.4-2.1-.2-2.8.6-.7.8-.8,2-.3,2.9,0,0,0,0,0,0,.6,1.1,1.9,3.6,3.5,8,.3.8,0,1.1,0,1.3-.5.7-1.9,1.3-3.7,1.3s-2.8-.6-3.1-1.1c-1.2-1.9-.4-6.3,1-9.7,0,0,0,0,0,0h0c.3-.9.2-1.8-.4-2.5-.4-.5-1.1-.9-1.8-.9h-.2c-.2,0-.4,0-.6.1-.6.2-1.2.3-1.6.3s-.4,0-.5,0c-.3-.4-.7-1.6-.4-5.4,0-1.1,2.3-2.3,8.2-2.3s5.3.3,6.5.4c1.3.2,1.6.7,1.8,1.2,0,0,0,0,0,0,.6,1.6-.1,4.4-1.3,5.7-.3.3-.7.7-1.8.7ZM159.8,32.1c-1.1.3-2.1.3-2.8-.2-.9-.6-1.5-1.9-1.7-3.6-.5-4.1.9-12.8,3.6-15.8.6-.6.9-.7,1-.7s0,0,0,0c.9.1,1.8,5.2.7,13.1l-.3,2.2c-.2,1.2.7,2.4,1.9,2.7,0,0,.2,0,.2,0,0,0,.2,0,.3,0-.6.8-1.7,2-3,2.3ZM166.7,31.1c0,0,0-.1.1-.2h0c0,0,0,.1-.1.2ZM170.3,31.1c-.9,1-1.7,1.4-2,1.4-.2-.4-.4-1.3-.3-2.2,0,0,0-.1,0-.2,0-1-.6-2-1.5-2.3-.5-.2-.9-.2-1.2-.2,0,0,0,0,0,0,0-.2.1-.9.3-2,.8-4.8,1.8-8.7,2.8-10.5.7-1.2,2-2,2.9-2,1.3,0,2.3,2,2.6,5.2.5,6-1.5,10.5-3.6,12.8ZM195.6,27.4c-1.5,2.6-3.7,4.1-6.2,4.3-1.6.1-2.1-.5-2.3-.7-1.2-1.4-1.2-5.1,0-9.4,0,0,0,0,0-.1.3-1,0-2-.9-2.6-1-.7-2.4-.6-3.2,0,0,0,0,0,0,0-2.2,1.7-3.4,1.7-3.6,1.5-.7-.8-.5-4.5,1.8-6.7,2-1.9,5.8-2.7,9.4-2,3,.6,5.3,2,6.2,3.9,1.5,3,1,8.1-1.1,11.7ZM207.5,34.7s0,0-.1,0c-.9-.2-3.2-3.2-4.2-8.8-.5-2.8-.5-5.3,0-7.3.7.6,1.6,1.1,2.6,1.4,1.4.4,3,.3,4.5-.2.1.8.2,1.7.3,2.6.4,6.8-1.9,11.9-3,12.2ZM206.5,15c.5,0,1,0,1.6.4-.3,0-.6,0-.9,0-.2,0-.4-.2-.6-.3ZM206.8,10.1c-.2,0-.5,0-.7,0,.6-1,1.5-1.6,2.5-1.6s.3,0,.6.1c.6.2,1.1.6,1.4,1.3,0,0,0,0,0,0,.2.4.3.9.3,1.3-1.2-.8-2.6-1.3-4.1-1.3ZM223.6,29.9c-1.3,1.6-2.6,2.4-3.8,2.4s-1.4-.2-2.1-.7c-2.1-1.3-2.8-3.9-1.8-7.6,1.6-6.7,7.1-12.8,9.6-13.1h0c.6,0,1.9.3,2.6,3,.8,3.7-1,11.7-4.5,15.9Z"/>
  </g>
  <path class="cls-4" d="M26.8,20.3c.8.9.7,2.7-.2,4.7-1.4,3.2-4.9,6.7-9.1,6.7h0c-4.9,0-5.8-5.5-5.9-8.8,0-.9,0-1.5,0-1.5,0-.3-.2-.4-.5-.4s-.4.2-.5.4c0,0,0,.6,0,1.5-.1,2.3-.8,7.7-4.6,7.7s-.4,0-.6,0c-3.5-.4-3.6-5.8-3.4-8.1.5-7.3,4.5-16.8,8.2-16.8s.3,0,.5,0c1.2.3,2.1.9,2.6,1.9,1.6,3.3-1.2,9.5-1.3,9.6-.1.3,0,.5.2.6.2,0,.5,0,.6-.2,1.7-3.1,7-11.2,10.5-11.2s1.4.4,2,1.3c.6,1,.7,2,.4,2.9-1.1,3.3-6.7,6.1-10,7.4l-2.5.9c-.2.1-.3.4-.2.6,0,.2.3.3.6.3l2.4-.9c1.4-.4,3-.5,4.5-.5,3,0,5.3.7,6.4,1.9Z"/>
  <path class="cls-4" d="M49.8,16.1c.8,4.6.2,8.4-1.5,10.4-.8,1-1.9,1.4-3.1,1.4-4.3,0-4.4-6.7-4.4-6.8,0-.2-.2-.4-.4-.4-.3,0-.4,0-.5.3,0,0-1.7,6-4.4,8.4-.8.7-1.8,1.2-2.8,1.2-2.1,0-4.5-1.9-4.5-7s1.6-8.1,4.2-12.1c2.5-3.9,5.4-6.3,7.5-6.3,4.5,0,8.9,4.8,9.9,10.9ZM41.2,17.7l.6-5.3c0-.3-.2-.5-.4-.5-.3,0-.5.2-.5.4l-.6,5.3c0,.3.2.5.4.5h0c.2,0,.4-.2.4-.4Z"/>
  <path class="cls-4" d="M62.7,5.5c.6,1.2.6,2.7.2,4.2-.2.7-.5,1.3-.9,1.9-1.2-2-2.8-3.1-4.9-3.1s-1.6.2-2.4.4c-.4.1-.7.3-1,.5,0-.8,0-1.6.3-2.3.7-2.4,2.7-4.1,4.9-4.1s.8,0,1.2.2c1.2.4,2.1,1.2,2.7,2.4ZM61.3,12.3c-.9.9-2.1,1.4-3.3,1.4s-.8,0-1.2-.2c-1.5-.4-2.6-1.7-3-3.3.4-.3.7-.4,1.1-.6.8-.3,1.5-.4,2.1-.4,2,0,3.4,1.3,4.2,3ZM62.8,18.7c.4,6.9-2,14-4.8,14.3,0,0-.2,0-.3,0-2.5,0-5.2-4.5-6.2-10.5-.7-4.4-.4-9.2,1.6-11.6.6,1.6,1.8,2.9,3.5,3.4.4.1.9.2,1.4.2,1.4,0,2.7-.5,3.7-1.5.8,2.1,1,4.4,1.1,5.5Z"/>
  <path class="cls-4" d="M85,11.1c1.8,3.6,1.3,9.4-1.2,13.6-1.9,3.2-4.6,5.1-7.8,5.3-1.8.1-3.1-.4-4-1.5-2.7-3.4-.4-11.2-.4-11.2.2-.7-.6-.7-1-.4-2.9,2.2-5.2,2.6-6.4,1.2-1.5-1.9-.9-6.7,2-9.4,2.5-2.3,6.9-3.3,11.1-2.5,3.6.7,6.4,2.5,7.6,5ZM76.3,21.8l.6-5.3c0-.3-.2-.5-.4-.5-.3,0-.5.2-.5.4l-.6,5.3c0,.3.2.5.4.5h0c.2,0,.4-.2.4-.4Z"/>
  <path class="cls-4" d="M102.7,9.9c.9,4.2-1,12.8-4.9,17.6-1.7,2.1-3.5,3.2-5.4,3.2s-2.1-.4-3.2-1c-3.7-2.3-3.5-6.6-2.7-9.8,1.7-6.8,7.6-14.3,11.5-14.6h.1c.8,0,3.6.3,4.5,4.6ZM95,21.5l.6-5.3c0-.3-.2-.5-.4-.5s-.5.2-.5.4l-.6,5.3c0,.3.1.5.4.5h0c.2,0,.4-.2.5-.4Z"/>
  <path class="cls-4" d="M119.9,14c1.5-.6,3.7-1.1,6.7-.8-1.3,1.2-3,1.9-4.5,1.9-1,0-1.7-.4-2-1,0,0,0,0,0,0ZM132.9,17.7c.8,3.7-1.7,8.7-5.4,11.1-3.5,2.3-8.5,2.3-11.3.2-1.3-1-2.6-2.9-1.3-6.3.7-1.9,1.8-3.1,3.1-3.9l.4-.2c3.6-1.9,8.2-.5,8.5-.4.3,0,.5,0,.6-.3,0-.3,0-.5-.3-.6,0,0-5.4-1.6-9.5.6-.6.4-3.3,1.1-5,0-1-.6-1.5-1.9-1.6-3.6-.3-4.8,3.8-8.2,7.6-9.8,3.9-1.6,7.8-1.5,9.3.2,1.4,1.5,1.6,3.6.6,5.8-.3.7-.7,1.3-1.2,1.9-3.4-.4-6,0-7.7.7-.2-1.5.5-3.4.9-4.1,0-.3,0-.5-.2-.6-.2,0-.5,0-.6.2l-3.7,7c-.1.2,0,.5.2.6.2.1.4,0,.6-.1,0,0,.7-.9,2.2-1.6,0,0,0,.1,0,.2.5.9,1.5,1.4,2.8,1.4,2,0,4.2-.9,5.8-2.6.1,0,.3,0,.4,0,2.7.4,4.3,1.9,4.8,4.2Z"/>
  <path class="cls-4" d="M153,7.8c1,2.4,0,5.9-1.6,7.7-.8,1-2,1.5-3.4,1.5s-3.4-.8-3.4-.8c-.2,0-.4,0-.5,0-.2.2-.2.4,0,.6,0,0,1.7,2.6,3.7,8.5.4,1.2.3,2.2-.4,3.1-.9,1.3-3,2.1-5.3,2.1s-4-.8-4.8-2c-2.4-3.8.9-11.5.9-11.6,0-.2,0-.4,0-.5,0,0-.2-.2-.3-.2h-.2c-.9.3-1.6.4-2.2.4s-1.5-.2-2-.7c-1.2-1.3-1.1-4.2-.9-6.9.3-3.5,5.7-4.2,10.2-4.2s5.1.2,6.8.4c1.7.2,2.9,1,3.4,2.4Z"/>
  <path class="cls-4" d="M175.1,14.5c.6,6.6-1.7,11.7-4.1,14.3-1.2,1.3-2.5,2.1-3.5,2-.6,0-1.1-.3-1.4-.7-1-1.2-.8-3.6-.8-3.7,0-.2-.1-.4-.3-.5,0,0,0,0-.2,0-.2,0-.3,0-.4.3,0,0-1.9,3.3-4.7,4.1-4,1.2-6.5-1.4-7-5.5-.5-4.5.9-13.8,4.1-17.4.9-1,1.9-1.4,2.9-1.3,4,.6,2.9,11.9,2.4,15.4-.2,1.3-.3,2.1-.3,2.1,0,.3.1.5.4.5.3,0,.5-.2.5-.4,0,0,0-.9.3-2.1.5-3,1.5-8.5,3-11.1,1-1.7,2.9-3,4.6-3,2.5,0,4.1,2.5,4.5,7Z"/>
  <path class="cls-4" d="M197.7,11.1c1.8,3.6,1.3,9.4-1.2,13.6-1.9,3.2-4.6,5.1-7.8,5.3-1.8.1-3.1-.4-4-1.5-2.7-3.4-.4-11.2-.4-11.2.2-.7-.6-.7-1-.4-2.9,2.2-5.2,2.6-6.4,1.2-1.5-1.9-.9-6.7,2-9.4,2.5-2.3,6.9-3.3,11.1-2.5,3.6.7,6.4,2.5,7.6,5ZM189.1,21.8l.6-5.3c0-.3-.2-.5-.4-.5-.3,0-.5.2-.5.4l-.6,5.3c0,.3.2.5.4.5h0c.2,0,.4-.2.4-.4Z"/>
  <path class="cls-4" d="M211.6,5.5c.6,1.2.6,2.7.2,4.2-.2.7-.5,1.3-.9,1.9-1.2-2-2.8-3.1-4.9-3.1s-1.6.2-2.4.4c-.4.1-.7.3-1,.5,0-.8,0-1.6.3-2.3.7-2.4,2.7-4.1,4.9-4.1s.8,0,1.2.2c1.2.4,2.1,1.2,2.7,2.4ZM210.3,12.3c-.9.9-2.1,1.4-3.3,1.4s-.8,0-1.2-.2c-1.5-.4-2.6-1.7-3-3.3.4-.3.7-.4,1.1-.6.8-.3,1.5-.4,2.1-.4,2,0,3.4,1.3,4.2,3ZM211.8,18.7c.4,6.9-2,14-4.8,14.3,0,0-.2,0-.3,0-2.5,0-5.2-4.5-6.2-10.5-.7-4.4-.4-9.2,1.6-11.6.6,1.6,1.8,2.9,3.5,3.4.4.1.9.2,1.4.2,1.4,0,2.7-.5,3.7-1.5.8,2.1,1,4.4,1.1,5.5Z"/>
  <path class="cls-4" d="M229.3,9.9c.9,4.2-1,12.8-4.9,17.6-1.7,2.1-3.5,3.2-5.4,3.2s-2.1-.4-3.2-1c-3.7-2.3-3.5-6.6-2.7-9.8,1.7-6.8,7.6-14.3,11.5-14.6h.1c.8,0,3.6.3,4.5,4.6ZM221.6,21.5l.6-5.3c0-.3-.2-.5-.4-.5-.3,0-.5.2-.5.4l-.6,5.3c0,.3.1.5.4.5h0c.2,0,.4-.2.5-.4Z"/>
  <g class="cls-15">
    <path class="cls-1" d="M26.8,20.3c.8.9.7,2.7-.2,4.7-1.4,3.2-4.9,6.7-9.1,6.7h0c-4.9,0-5.8-5.5-5.9-8.8,0-.9,0-1.5,0-1.5,0-.3-.2-.4-.5-.4s-.4.2-.5.4c0,0,0,.6,0,1.5-.1,2.3-.8,7.7-4.6,7.7s-.4,0-.6,0c-3.5-.4-3.6-5.8-3.4-8.1.5-7.3,4.5-16.8,8.2-16.8s.3,0,.5,0c1.2.3,2.1.9,2.6,1.9,1.6,3.3-1.2,9.5-1.3,9.6-.1.3,0,.5.2.6.2,0,.5,0,.6-.2,1.7-3.1,7-11.2,10.5-11.2s1.4.4,2,1.3c.6,1,.7,2,.4,2.9-1.1,3.3-6.7,6.1-10,7.4l-2.5.9c-.2.1-.3.4-.2.6,0,.2.3.3.6.3l2.4-.9c1.4-.4,3-.5,4.5-.5,3,0,5.3.7,6.4,1.9Z"/>
  </g>
  <g class="cls-14">
    <path class="cls-1" d="M49.8,16.1c.8,4.6.2,8.4-1.5,10.4-.8,1-1.9,1.4-3.1,1.4-4.3,0-4.4-6.7-4.4-6.8,0-.2-.2-.4-.4-.4-.3,0-.4,0-.5.3,0,0-1.7,6-4.4,8.4-.8.7-1.8,1.2-2.8,1.2-2.1,0-4.5-1.9-4.5-7s1.6-8.1,4.2-12.1c2.5-3.9,5.4-6.3,7.5-6.3,4.5,0,8.9,4.8,9.9,10.9ZM41.2,17.7l.6-5.3c0-.3-.2-.5-.4-.5-.3,0-.5.2-.5.4l-.6,5.3c0,.3.2.5.4.5h0c.2,0,.4-.2.4-.4Z"/>
  </g>
  <g class="cls-7">
    <path class="cls-1" d="M62.7,5.5c.6,1.2.6,2.7.2,4.2-.2.7-.5,1.3-.9,1.9-1.2-2-2.8-3.1-4.9-3.1s-1.6.2-2.4.4c-.4.1-.7.3-1,.5,0-.8,0-1.6.3-2.3.7-2.4,2.7-4.1,4.9-4.1s.8,0,1.2.2c1.2.4,2.1,1.2,2.7,2.4ZM61.3,12.3c-.9.9-2.1,1.4-3.3,1.4s-.8,0-1.2-.2c-1.5-.4-2.6-1.7-3-3.3.4-.3.7-.4,1.1-.6.8-.3,1.5-.4,2.1-.4,2,0,3.4,1.3,4.2,3ZM62.8,18.7c.4,6.9-2,14-4.8,14.3,0,0-.2,0-.3,0-2.5,0-5.2-4.5-6.2-10.5-.7-4.4-.4-9.2,1.6-11.6.6,1.6,1.8,2.9,3.5,3.4.4.1.9.2,1.4.2,1.4,0,2.7-.5,3.7-1.5.8,2.1,1,4.4,1.1,5.5Z"/>
  </g>
  <g class="cls-8">
    <path class="cls-1" d="M85,11.1c1.8,3.6,1.3,9.4-1.2,13.6-1.9,3.2-4.6,5.1-7.8,5.3-1.8.1-3.1-.4-4-1.5-2.7-3.4-.4-11.2-.4-11.2.2-.7-.6-.7-1-.4-2.9,2.2-5.2,2.6-6.4,1.2-1.5-1.9-.9-6.7,2-9.4,2.5-2.3,6.9-3.3,11.1-2.5,3.6.7,6.4,2.5,7.6,5ZM76.3,21.8l.6-5.3c0-.3-.2-.5-.4-.5-.3,0-.5.2-.5.4l-.6,5.3c0,.3.2.5.4.5h0c.2,0,.4-.2.4-.4Z"/>
  </g>
  <g class="cls-12">
    <path class="cls-1" d="M102.7,9.9c.9,4.2-1,12.8-4.9,17.6-1.7,2.1-3.5,3.2-5.4,3.2s-2.1-.4-3.2-1c-3.7-2.3-3.5-6.6-2.7-9.8,1.7-6.8,7.6-14.3,11.5-14.6h.1c.8,0,3.6.3,4.5,4.6ZM95,21.5l.6-5.3c0-.3-.2-.5-.4-.5s-.5.2-.5.4l-.6,5.3c0,.3.1.5.4.5h0c.2,0,.4-.2.5-.4Z"/>
  </g>
  <g class="cls-10">
    <path class="cls-1" d="M119.9,14c1.5-.6,3.7-1.1,6.7-.8-1.3,1.2-3,1.9-4.5,1.9-1,0-1.7-.4-2-1,0,0,0,0,0,0ZM132.9,17.7c.8,3.7-1.7,8.7-5.4,11.1-3.5,2.3-8.5,2.3-11.3.2-1.3-1-2.6-2.9-1.3-6.3.7-1.9,1.8-3.1,3.1-3.9l.4-.2c3.6-1.9,8.2-.5,8.5-.4.3,0,.5,0,.6-.3,0-.3,0-.5-.3-.6,0,0-5.4-1.6-9.5.6-.6.4-3.3,1.1-5,0-1-.6-1.5-1.9-1.6-3.6-.3-4.8,3.8-8.2,7.6-9.8,3.9-1.6,7.8-1.5,9.3.2,1.4,1.5,1.6,3.6.6,5.8-.3.7-.7,1.3-1.2,1.9-3.4-.4-6,0-7.7.7-.2-1.5.5-3.4.9-4.1,0-.3,0-.5-.2-.6-.2,0-.5,0-.6.2l-3.7,7c-.1.2,0,.5.2.6.2.1.4,0,.6-.1,0,0,.7-.9,2.2-1.6,0,0,0,.1,0,.2.5.9,1.5,1.4,2.8,1.4,2,0,4.2-.9,5.8-2.6.1,0,.3,0,.4,0,2.7.4,4.3,1.9,4.8,4.2Z"/>
  </g>
  <g class="cls-13">
    <path class="cls-1" d="M153,7.8c1,2.4,0,5.9-1.6,7.7-.8,1-2,1.5-3.4,1.5s-3.4-.8-3.4-.8c-.2,0-.4,0-.5,0-.2.2-.2.4,0,.6,0,0,1.7,2.6,3.7,8.5.4,1.2.3,2.2-.4,3.1-.9,1.3-3,2.1-5.3,2.1s-4-.8-4.8-2c-2.4-3.8.9-11.5.9-11.6,0-.2,0-.4,0-.5,0,0-.2-.2-.3-.2h-.2c-.9.3-1.6.4-2.2.4s-1.5-.2-2-.7c-1.2-1.3-1.1-4.2-.9-6.9.3-3.5,5.7-4.2,10.2-4.2s5.1.2,6.8.4c1.7.2,2.9,1,3.4,2.4Z"/>
  </g>
  <g class="cls-16">
    <path class="cls-1" d="M175.1,14.5c.6,6.6-1.7,11.7-4.1,14.3-1.2,1.3-2.5,2.1-3.5,2-.6,0-1.1-.3-1.4-.7-1-1.2-.8-3.6-.8-3.7,0-.2-.1-.4-.3-.5,0,0,0,0-.2,0-.2,0-.3,0-.4.3,0,0-1.9,3.3-4.7,4.1-4,1.2-6.5-1.4-7-5.5-.5-4.5.9-13.8,4.1-17.4.9-1,1.9-1.4,2.9-1.3,4,.6,2.9,11.9,2.4,15.4-.2,1.3-.3,2.1-.3,2.1,0,.3.1.5.4.5.3,0,.5-.2.5-.4,0,0,0-.9.3-2.1.5-3,1.5-8.5,3-11.1,1-1.7,2.9-3,4.6-3,2.5,0,4.1,2.5,4.5,7Z"/>
  </g>
  <g class="cls-11">
    <path class="cls-1" d="M197.7,11.1c1.8,3.6,1.3,9.4-1.2,13.6-1.9,3.2-4.6,5.1-7.8,5.3-1.8.1-3.1-.4-4-1.5-2.7-3.4-.4-11.2-.4-11.2.2-.7-.6-.7-1-.4-2.9,2.2-5.2,2.6-6.4,1.2-1.5-1.9-.9-6.7,2-9.4,2.5-2.3,6.9-3.3,11.1-2.5,3.6.7,6.4,2.5,7.6,5ZM189.1,21.8l.6-5.3c0-.3-.2-.5-.4-.5-.3,0-.5.2-.5.4l-.6,5.3c0,.3.2.5.4.5h0c.2,0,.4-.2.4-.4Z"/>
  </g>
  <g class="cls-9">
    <path class="cls-1" d="M211.6,5.5c.6,1.2.6,2.7.2,4.2-.2.7-.5,1.3-.9,1.9-1.2-2-2.8-3.1-4.9-3.1s-1.6.2-2.4.4c-.4.1-.7.3-1,.5,0-.8,0-1.6.3-2.3.7-2.4,2.7-4.1,4.9-4.1s.8,0,1.2.2c1.2.4,2.1,1.2,2.7,2.4ZM210.3,12.3c-.9.9-2.1,1.4-3.3,1.4s-.8,0-1.2-.2c-1.5-.4-2.6-1.7-3-3.3.4-.3.7-.4,1.1-.6.8-.3,1.5-.4,2.1-.4,2,0,3.4,1.3,4.2,3ZM211.8,18.7c.4,6.9-2,14-4.8,14.3,0,0-.2,0-.3,0-2.5,0-5.2-4.5-6.2-10.5-.7-4.4-.4-9.2,1.6-11.6.6,1.6,1.8,2.9,3.5,3.4.4.1.9.2,1.4.2,1.4,0,2.7-.5,3.7-1.5.8,2.1,1,4.4,1.1,5.5Z"/>
  </g>
  <g class="cls-2">
    <path class="cls-1" d="M229.3,9.9c.9,4.2-1,12.8-4.9,17.6-1.7,2.1-3.5,3.2-5.4,3.2s-2.1-.4-3.2-1c-3.7-2.3-3.5-6.6-2.7-9.8,1.7-6.8,7.6-14.3,11.5-14.6h.1c.8,0,3.6.3,4.5,4.6ZM221.6,21.5l.6-5.3c0-.3-.2-.5-.4-.5-.3,0-.5.2-.5.4l-.6,5.3c0,.3.1.5.4.5h0c.2,0,.4-.2.5-.4Z"/>
  </g>
</svg>