<svg width="145" height="128" viewBox="0 0 145 128" fill="none" xmlns="http://www.w3.org/2000/svg">
<path fill-rule="evenodd" clip-rule="evenodd" d="M99.108 70.8954C93.9726 65.5486 93.1418 56.9982 93.925 49.8486C94.2227 47.2006 94.5442 44.536 94.8657 41.8714C95.1872 39.2068 95.5086 36.5422 95.8064 33.8942C96.7599 26.0229 98.9375 17.6135 103.523 11.1994C107.577 5.50091 113.842 1.87736 120.543 0.993367C126.989 0.142855 134.125 1.56818 138.701 6.55841C143.684 11.9253 145.048 20.1902 143.929 27.5455C143.736 29.128 143.539 30.7158 143.342 32.3056C142.879 36.0429 142.414 39.7911 141.996 43.5066C141.265 51.51 138.751 59.6948 134.286 66.2544C130.296 72.052 123.967 75.5764 117.267 76.4604C110.826 77.3639 103.824 75.7596 99.108 70.8954ZM114.001 40.3464C113.549 44.0803 113.096 47.8161 112.7 51.5671C112.256 55.9826 113.737 57.9925 116.935 57.5706C120.184 57.142 121.901 54.7102 122.345 50.2947C122.752 46.2069 123.25 42.1339 123.749 38.0608C124.248 33.9878 124.747 29.9148 125.153 25.827C125.598 21.4115 124.116 19.4016 120.868 19.8302C117.67 20.2521 115.953 22.6839 115.509 27.0994C115.068 31.527 114.535 35.9354 114.001 40.3464ZM40.7687 59.9736C39.9855 67.1232 40.8163 75.6736 45.9518 81.0204C50.6677 85.8846 57.6701 87.4889 64.1104 86.5854C70.811 85.7014 77.1397 82.177 81.1298 76.3794C85.5947 69.8198 88.109 61.635 88.8402 53.6316C89.2579 49.9163 89.7225 46.1683 90.1856 42.4312L90.1858 42.4298C90.3828 40.8403 90.5796 39.2527 90.7724 37.6705C91.8916 30.3152 90.5282 22.0503 85.545 16.6834C80.9685 11.6932 73.8331 10.2679 67.3864 11.1184C60.6858 12.0024 54.4207 15.6259 50.367 21.3244C45.7813 27.7385 43.6036 36.1479 42.6501 44.0192C42.3524 46.6672 42.0309 49.3318 41.7094 51.9964C41.3879 54.661 41.0664 57.3256 40.7687 59.9736ZM60.8442 50.4724L60.8443 50.4714L60.8443 50.4711C61.3783 46.0602 61.9119 41.6519 62.3525 37.2244C62.7968 32.8089 64.5133 30.3771 67.7113 29.9552C70.96 29.5266 72.4416 31.5365 71.9972 35.952C71.5905 40.0398 71.0917 44.1129 70.5929 48.1859V48.186L70.5928 48.187C70.0941 52.2596 69.5953 56.3323 69.1886 60.4197C68.7443 64.8352 67.0278 67.267 63.7791 67.6956C60.5811 68.1175 59.0995 66.1076 59.5439 61.6921C59.94 57.9414 60.3922 54.2059 60.8442 50.4724ZM26.3684 99.5192L35.4512 33.669C35.4512 33.669 37.9825 21.0128 27.8575 21.0128C21.4582 21.0128 9.37026 35.558 2.531 44.5181C-0.269872 48.1876 0.840099 53.4026 4.79847 55.7776C7.93695 57.6608 11.9543 57.1662 14.5423 54.578L15.2012 53.919L9.03457 97.0856C8.28136 102.358 12.3726 107.075 17.6986 107.075C22.07 107.075 25.7711 103.85 26.3684 99.5192ZM134.053 83.212C134.65 85.9434 132.921 88.6419 130.189 89.2394L49.1893 106.958C46.4579 107.556 43.7594 105.826 43.1619 103.094C42.5644 100.363 44.2942 97.6646 47.0256 97.0671L128.026 79.3483C130.757 78.7508 133.456 80.4807 134.053 83.212ZM121.389 103.429C122.005 106.156 120.294 108.866 117.566 109.482L39.0975 127.201C36.3703 127.817 33.6601 126.105 33.0443 123.378C32.4285 120.65 34.1401 117.94 36.8674 117.324L115.336 99.6057C118.063 98.9899 120.774 100.702 121.389 103.429Z" fill="#BF97FF"/>
</svg>
