<?xml version="1.0" encoding="UTF-8"?>
<svg id="Layer_1" data-name="Layer 1" xmlns="http://www.w3.org/2000/svg" version="1.1" viewBox="0 0 128 128">
  <defs>
    <style>
      .cls-1 {
        fill: #000;
      }

      .cls-1, .cls-2, .cls-3 {
        stroke-width: 0px;
      }

      .cls-2 {
        fill: #1b1f8e;
      }

      .cls-3 {
        fill: #fff;
      }
    </style>
  </defs>
  <g>
    <path class="cls-2" d="M69.2,122.9c-.6,0-1.3,0-1.9,0-1.3-.2-2.5-.5-3.5-.9-.5-.2-1.1-.3-1.6-.5-1.8-.5-3.6-1.1-5-2-1.9-1-3.6-2.5-5.2-3.9-1.1-.9-2.1-1.8-3.1-2.5-1.3-.9-2.3-2-3.3-2.9-.4-.4-.8-.8-1.2-1.1-.3-.3-.6-.5-.9-.8-1.3-1.1-2.6-2.2-2.2-3.8.1-.5.5-1.5,1.9-1.9,0,0,.2,0,.3,0-6.5-.8-13.5-2-19.3-5.6-7.4-4.4-11.1-12-13.5-18-1.1-2.7-1.9-5.7-2.1-8.9-2.7-18.5,13.9-34.7,21.1-40.8,3.3-3.1,6.5-6,10.3-8.3,5.3-3,10.7-5.7,16.1-8.2l1.1-.5c2.1-1,4.4-2.1,6.6-3,1.9-.7,3.7-.9,5.5-1.2.6,0,1.2-.2,1.8-.3.7-.8,1.8-1.2,3.6-1.2s4.1.4,5.7,1.2c.5.2,1,.6,1.7.9.6.4,1.5.9,2.3,1.3-.1-.6-.1-1.3.1-2.1v-.3c.3-.9.8-3.3,3.3-3.3s.4,0,.6,0c.8,0,1.4.4,2,.7.4-.1.9-.2,1.5-.2,2.6,0,3.2,1.2,3.4,2,0,.1,0,.3,0,.7.5.4,1.1.8,1.7,1.2,1.4.9,3.1,2,4,3.8.4.9.6,1.8.6,2.7,0-.1.1-.2.2-.3.6-1.1.4-1.8-.2-3.3-.5-1.3-1.1-2.9-.8-4.8.1-.5.4-1,.9-1.3.3-.2.7-.3,1.1-.3s.4,0,.5,0c2.7.8,6.9,1.9,8.9,5.4,1.3,1.9,1.1,3.7.8,5.5-.1.8-.2,1.6-.3,2.5-.1,1.3-.2,2.7-.6,4.1-1,3.6-4.3,6-8.3,6-.2,0-.6,0-.9,0-.9,0-1.9,0-2.8-.1-.9,0-1.7-.1-2.5-.1s-.7,0-1.4.8c-.3.3-.6.7-1,1-1.8,1.7-4.6,3.8-8,3.8s-1.9-.2-2.8-.5c-.3-.1-.4-.1-.5-.2-.1,0-.3.2-.5.3-.2.2-.5.3-.9.5-1.3.8-2.8,1.2-4.2,1.7-.4.1-.8.3-1.2.4-1.4.5-2.8.9-4.2,1.3-6.6,2-12.9,4-18.8,7.3-4,2.3-11.3,7.2-14.9,14.7-1.3,2.7-2.2,6-3,9.1-.2.7-.4,1.4-.6,2-.9,3.7-1.2,6.8,0,10.5l.2.6c.2.5.5,1.8.8,2,0,0,.1,0,.2.1.1,0,.3.2.8.2s1.1-.1,1.8-.2c.5,0,.9-.2,1.4-.2.6,0,1.2-.2,1.9-.3,2.7-.3,5.8-.7,7.6-2,1.6-1.3,3.4-2.2,5.2-3-3.4-.7-4.7-5-5.6-7.7-.2-.5-.3-.9-.4-1.3-.3-.8-.5-1.6-.8-2.4-1.1-3.3-2.2-6.8-3.9-9.5-.4-.7-.4-1.6,0-2.2.4-.5,1-.9,1.6-.9s.3,0,.4,0c.5.1,1.1.3,1.6.5.6.2,1.3.5,1.8.5s.1,0,.2,0c.4-.2,1.6-1.6,1.9-2.4,0-.2,0-1,0-1.6,0-1.8,0-3.7,1.3-4.7.5-.4,1.2-.7,1.9-.7,1.4,0,2.8.9,4,1.8,0,0,.3.2.3.2.3.2.7.5,1,.7,1.1.8,2.1,1.6,3.1,2.6.5.4.9,1,1.3,1.5.5.6.9,1.2,1.4,1.4.3.2.7.3,1.2.3s1,0,1.6-.1h.5c.5-.1.9-.1,1.3-.2,1.7-.1,3.3-.3,4.8-.6,3.1-.6,5.6-2.4,7-5,.1-.2.4-1,.6-1.6,1.1-3.2,2.5-7.1,5.5-7.1s.6,0,.9.1c1.1.3,1.7,1.2,2.1,2.1.3-.3.5-.6.8-.9.9-1,2-2.2,2.5-3.1,0-.1,0-.3-.3-.7-.2-.4-.4-1-.5-1.6-.1-.6,0-1.2.4-1.6.4-.5.9-.8,1.5-.8.1,0,.3,0,.4,0,4.1,0,7.2,3.5,8.5,7,.3.8.5,1.6.7,2.4,0,0,0,0,0,0,0,0,0-.1,0-.2,0,0,0-.1,0-.2,0-.4,0-1.1.4-1.8.6-1.3,2-2,3.7-2s3.3.6,4.2,1.4c0,0,0,0,0,0,2.8,2.8.3,7.2-1.4,10.2-.2.3-.3.6-.5.8,0,.2,0,.5-.2.7l-.5,1c-1.5,3.3-3,6.8-4.2,10.3-1.6,4.9-2.2,9.8-3,15-.4,2.7-.8,5.4-1.3,8.2-.5,2.8-.9,5.7-1.2,8.6-.1,1.2-.3,2.4-.4,3.6-.5,4.3-1.6,7.6-3.7,11.1-2.2,3.7-4.4,6.6-8.2,8.4-2.6,1.2-5.2,2-7.8,2.7-1.2.3-2.4.7-3.5,1-2.4.7-6,1.6-9.9,1.6ZM50.5,103.4c1.7.2,3.4.5,5.2,1,0,0,.1,0,.2,0,0,0,.4.2.4.2.3-.3.8-.6,1.5-.6s.9.1,1.3.4c0,0,0,0,0,0,0,0,0,0,.1,0,.4-.1.9-.3,1.5-.3h2.3c.5,0,1.8,0,2.3-.2,0,0,0,0,.1,0,0,0,0,0,.3-.3.2-.2.4-.4.7-.7,0,0,0,0,0,0,1-.8,2.2-1.2,3.3-1.6.8-.3,1.5-.6,2.1-1,1.7-1.1,2.9-2.8,3.8-4.7-1,.8-2.1,1.4-3.3,2-4.7,2.6-8.5,4.2-12.3,5.2-2,.5-4.1.8-6.5.8s-3.2-.1-5.1-.3c.2,0,.4.1.6.2.4,0,.8.1,1.1.2ZM69.3,68.4c-.8.1-1.7.5-2.2,1-.9.7-1.9,1.8-2.8,2.8-.6.6-1.1,1.2-1.6,1.8-.2.2-.4.5-.7.7,2.7-1.8,5.1-3.8,7-5.8,0,0,.3-.4.4-.4Z"/>
    <path class="cls-3" d="M87.8,6.1c.1,0,.2,0,.4,0,.8,0,1.8,1,2.5,1.3-.4-.5.4-.7,1.2-.7s2,.3,1,.7c1.3,2.5,5,3.1,6.4,5.9,1.3,2.7-1,5.8-1.6,8.4,2.1-1.6,4.6-3.7,5.9-6,2-3.4-1.4-5.6-.8-8.7,2.8.8,6.2,1.8,7.7,4.5.9,1.3.8,2.5.5,4-.4,2.2-.3,4.4-.9,6.4-.8,2.9-3.4,4.6-6.4,4.6-.3,0-.6,0-.9,0-1.8,0-3.5-.2-5.3-.2s-2.4,1.1-3.7,2.4c-1.8,1.8-4.2,3.2-6.6,3.2s-1.4-.1-2.1-.4c-.5-.2-.9-.3-1.2-.3-.7,0-1.2.5-2.3,1.1-1.6.9-3.4,1.4-5.1,2-8,2.5-16,4.6-23.3,8.7-6.3,3.5-12.5,8.9-15.8,15.6-1.7,3.5-2.6,7.6-3.7,11.5-1,4-1.4,7.5,0,11.7.4,1.3.8,3.1,2.1,3.7.6.4,1.2.5,1.9.5,1.1,0,2.4-.4,3.4-.5,3.2-.5,7.7-.7,10.5-2.6,2.8-2.3,6.6-3.3,9.7-5.2,3.3-2.1,6.6-4.5,9.2-7.3,1-1.2,2.5-2.7.5-3.5-.4-.2-.9-.2-1.3-.2-1.4,0-2.8.7-3.8,1.4-1.7,1.3-3.1,3.2-4.6,4.7s-2.4,3.3-4,3.6c-.2,0-.4,0-.6,0-3.2,0-4.3-5.6-5.1-7.8-1.4-4.1-2.5-8.6-4.9-12.2,1.1.2,2.5,1,3.8,1s.6,0,.8-.1c1.1-.4,2.6-2.4,3.1-3.5.5-1.3-.2-4.8.8-5.6.2-.1.4-.2.6-.2,1,0,2.7,1.2,3.1,1.6,1.3,1,2.7,2,3.9,3.1,1.1,1,1.8,2.4,3.1,3.2.7.4,1.4.5,2.1.5s1.5-.1,2.4-.2c2.2-.2,4.3-.3,6.4-.8,3.5-.7,6.6-2.7,8.3-6,.7-1.3,2.2-7.7,4.4-7.7s.2,0,.3,0c.7.2,1.2,1.8,1.5,2.4.4.7.8,1.1,1,1.1.5,0,.8-.8,1.6-1.8,1.2-1.4,2.9-3.1,3.7-4.7.5-1.3-.4-2.2-.7-3.5.1,0,.2,0,.3,0,3.1,0,5.6,2.8,6.6,5.7,1.1,2.9,1,6.2.8,9.3.9-1.6,1.6-3.1,2.4-4.7.4-.8,1.1-1.6,1.3-2.4.2-.5,0-1.2.3-1.7.3-.7,1.1-.9,1.9-.9s2.3.4,2.9.9c2.1,2.1-1.5,7.1-2.6,9.4h0c0,0,0,.1,0,.1,0,0,0,0,0-.1h.1c-1.7,3.9-3.4,7.7-4.7,11.6-2.4,7.6-2.8,15.6-4.3,23.4-.8,4-1.1,8.2-1.6,12.3-.5,3.9-1.5,7-3.4,10.3-2,3.3-3.9,6-7.3,7.6-3.5,1.7-7.4,2.4-11.1,3.6-2.9.9-6.2,1.5-9.3,1.5s-1.2,0-1.7,0c-1.7-.2-3.2-.9-4.8-1.3s-3.1-1-4.5-1.8c-2.8-1.6-5.4-4.3-8.1-6.3-1.6-1.2-2.8-2.5-4.3-3.9-1.5-1.4-3.5-2.6-2-3.1.2,0,.5,0,.8,0,1.4,0,3.3.6,4.4.9,2.1.3,4.1.5,6.2,1.1.3.1.9.5,1.4.5s.5,0,.6-.3c.3-.2.4-.5.6-.5s.2,0,.4.2c.2.2.5.2.7.2s.3,0,.5,0c.4,0,1-.4,1.5-.4h2.3c.8,0,2.3,0,3.1-.4.8-.3,1-.8,1.6-1.3,1.6-1.2,3.7-1.5,5.3-2.5,3.4-2.3,5.1-6.3,6.3-10,.9-2.5,1.5-5.2,2.2-7.8.4-2,.8-3.8,1.2-5.8,0,0,0-1.1.2-2.4.2-1.3.2-2.7.2-3.6,0-1.6-.2-2.9-1.1-3.8-.7,1.1-.5,1.5-.4,2.4v-.2.8c-.2,0-.3.7-.2,1.1-.8,3.5-1.7,8.4-2.6,12.3-.4,1.3-.9,2.5-1.1,3.9,0,.4-.2.9-.3,1.3-.9,2.7-2.9,4.3-5.8,5.8-3.7,2.1-7.6,3.9-11.9,5-1.9.5-3.9.7-6,.7s-4.3-.2-6.4-.5c-7.4-.9-15.7-1.8-22.2-5.8-6.4-3.8-10-10.3-12.6-17-1.2-2.7-1.8-5.6-2-8.4-2.5-17.4,13.1-32.9,20.5-39.1,3.1-2.9,6.4-5.9,10-8.1,5.1-2.9,10.6-5.6,15.9-8.1,2.4-1.2,5-2.4,7.5-3.4,2.6-1,5.4-1,8.1-1.6-.3-.6.6-.9,2.1-.9s3.4.3,4.9,1c1.4.7,4.8,3.1,6.8,3.1s.7,0,.9-.2c1-.5-1.6-2-.9-4,.3-1.1.4-2.2,1.4-2.2M87.8,2.1c-1.8,0-4.1.8-5.1,4.5-.5-.3-1-.6-1.4-.8,0,0,0,0,0,0-1.9-.9-4.3-1.4-6.5-1.4s-2.9,0-4.5,1.3c-.4,0-.8.1-1.2.2-1.8.2-3.9.5-5.9,1.3-2.4.9-4.6,2-6.8,3.1l-1.1.5c-5.3,2.6-10.9,5.2-16.1,8.3,0,0,0,0-.1,0-3.9,2.4-7.3,5.5-10.5,8.5-7.5,6.4-24.5,23.1-21.8,42.5.3,3.4,1,6.6,2.2,9.5,2.3,5.9,6.3,14.2,14.3,19,5,3,10.7,4.5,16.2,5.3,0,0,0,.1,0,.2-.6,2.8,1.5,4.5,2.9,5.7.3.2.6.5.8.7.4.4.8.7,1.2,1.1,1.1,1,2.2,2.1,3.5,3.1,0,0,0,0,0,0,1,.7,1.9,1.5,3,2.4,1.7,1.5,3.5,3,5.5,4.1,1.6.9,3.5,1.7,5.5,2.2.4.1.9.3,1.5.4,1.1.4,2.4.8,3.8.9,0,0,0,0,.1,0,.7,0,1.4,0,2.1,0,4.2,0,8-.9,10.5-1.7,1.1-.4,2.3-.7,3.5-1,2.7-.8,5.4-1.5,8.1-2.8,4.7-2.3,7.2-6,9.1-9.2,2.2-3.7,3.4-7.3,3.9-11.8.1-1.2.3-2.4.4-3.6.3-3,.6-5.7,1.1-8.4.5-2.8.9-5.6,1.3-8.3.7-5.1,1.4-10,2.9-14.7,1.1-3.3,2.6-6.7,4.1-10l.5-1c.1-.3.2-.6.3-.9,0-.2.2-.3.3-.5,1.7-3.1,4.9-8.7,1.1-12.6,0,0-.1,0-.2-.1-1.3-1.2-3.5-2-5.6-2s-2.8.4-3.8,1.2c-1.9-3.4-5.2-6.4-9.5-6.4.2-.2.3-.3.4-.5,0,0,0,0,.1-.1.7,0,1.4,0,2.2,0,.9,0,1.9.1,2.9.1s.7,0,1,0c4.8,0,8.9-3,10.1-7.5.5-1.5.6-3.1.7-4.4,0-.8.1-1.6.3-2.3.3-1.4.8-4.1-1-6.9-2.4-4.1-7-5.4-10.1-6.2-.3,0-.7-.1-1.1-.1-.7,0-1.5.2-2.1.6-.9.6-1.6,1.6-1.8,2.7,0,.3-.1.7-.1,1-.2-.1-.4-.3-.6-.4-.3-.2-.6-.4-.9-.6,0,0,0,0,0,0-.2-.8-1.1-3.6-5.3-3.6s-.9,0-1.2,0c-.6-.3-1.3-.5-2-.6-.3,0-.6,0-.8,0h0ZM87.2,35.8c2.1,0,4.1-.7,5.7-1.6,0,.5,0,1,0,1.5.1.7.3,1.2.5,1.7-.3.4-.6.8-1,1.2-.5-.4-1-.7-1.7-.9-.5-.1-.9-.2-1.4-.2-4.4,0-6.1,4.9-7.4,8.5-.2.5-.4,1.1-.5,1.3,0,0,0,0,0,0-1.1,2.1-3.1,3.5-5.6,4,0,0-.1,0-.2,0-1.4.3-2.9.4-4.5.6-.4,0-.9,0-1.3.1,0,0,0,0-.1,0h-.5c-.5.1-1,.2-1.4.2s-.2,0-.2,0c-.2-.1-.6-.6-.8-.9-.4-.5-.9-1.1-1.5-1.7-1.1-1.1-2.2-1.9-3.3-2.7-.3-.2-.7-.5-1-.7,0,0-.1-.1-.2-.2h-.2c-.7-.6-1.3-1-2-1.4,4.7-2.2,9.6-3.7,14.8-5.3,1.4-.4,2.7-.8,4.1-1.3,0,0,0,0,.1,0,.4-.1.8-.3,1.2-.4,1.4-.5,3-1,4.5-1.8.2-.1.4-.2.6-.4,1,.3,2,.5,3,.5h0ZM47.2,52.2c1-1,2.1-1.9,3.3-2.8,0,.6,0,1.2,0,1.7,0,.3,0,.8,0,1.1-.2.2-.4.6-.6.8-.2,0-.4-.1-.6-.2-.6-.2-1.2-.4-1.9-.6,0,0-.1,0-.2,0h0ZM37.6,71c.2-.7.4-1.3.5-2,.8-3,1.7-6.2,2.9-8.8.5-1,1-1.9,1.7-2.9.1.3.3.7.5,1,1.6,2.5,2.7,5.8,3.7,9,.2.8.5,1.5.7,2.3,0,0,0,0,0,.1.1.3.2.7.4,1.2.6,1.8,1.5,4.8,3.4,6.9-.8.5-1.6,1-2.4,1.6-1.4,1-4.3,1.3-6.7,1.6-.7,0-1.3.2-2,.3-.5,0-1,.2-1.4.2-.4,0-.8.2-1.1.2,0-.3-.2-.6-.3-.8,0-.2-.1-.4-.2-.5,0,0,0,0,0,0-1.1-3.2-.8-5.9,0-9.4h0Z"/>
  </g>
  <path class="cls-1" d="M82.6,68.5"/>
</svg>