<?xml version="1.0" encoding="UTF-8"?>
<svg id="Layer_1" data-name="Layer 1" xmlns="http://www.w3.org/2000/svg" version="1.1" viewBox="0 0 128 128">
  <defs>
    <style>
      .cls-1 {
        fill: #000;
      }

      .cls-1, .cls-2 {
        stroke-width: 0px;
      }

      .cls-2 {
        fill: #d4feb3;
      }
    </style>
  </defs>
  <path class="cls-2" d="M112,50.3c-1.7,3.8-3.5,7.7-4.8,11.7-2.5,7.8-2.9,15.9-4.4,23.9-.8,4.1-1.1,8.4-1.6,12.6-.5,4-1.5,7.1-3.5,10.5s-4,6.1-7.5,7.8c-3.6,1.7-7.6,2.5-11.3,3.7-3.5,1.1-7.6,1.8-11.3,1.5-1.7-.2-3.3-.9-4.9-1.3s-3.2-1-4.6-1.8c-2.9-1.6-5.5-4.4-8.3-6.4-1.6-1.2-2.9-2.6-4.4-4s-3.6-2.7-2-3.2c1.3-.4,3.9.5,5.3.8,2.1.3,4.2.5,6.3,1.1.5.2,1.5.8,2.1.2.4-.3.5-.7,1-.3.4.3.8.2,1.2.2s1-.4,1.5-.4c.8,0,1.5,0,2.3,0s2.3,0,3.2-.4c.8-.3,1-.8,1.6-1.3,1.6-1.2,3.8-1.5,5.4-2.6,3.5-2.3,5.2-6.4,6.4-10.2.9-2.6,1.5-5.3,2.2-8,.4-2,.8-3.9,1.2-5.9,0,0,0-1.1.2-2.4s.2-2.8.2-3.7c0-1.6-.2-3-1.1-3.9-.7,1.1-.5,1.5-.4,2.4v-.2c0,0,0,.8,0,.8-.2,0-.3.7-.2,1.1-.8,3.6-1.7,8.6-2.7,12.6-.4,1.3-.9,2.6-1.1,4,0,.4-.2.9-.3,1.3-.9,2.8-3,4.4-5.9,5.9-3.8,2.1-7.8,4-12.1,5.1-4.1,1.1-8.4.8-12.6.2-7.6-.9-16-1.8-22.7-5.9-6.5-3.9-10.2-10.5-12.9-17.4-1.2-2.8-1.8-5.7-2-8.6-2.6-17.8,13.4-33.6,20.9-39.9,3.2-3,6.5-6,10.2-8.3,5.2-3,10.8-5.7,16.2-8.3,2.5-1.2,5.1-2.5,7.7-3.5,2.7-1,5.5-1,8.3-1.6-.7-1.2,4-1.3,7.1.1,1.7.8,6.1,4,7.9,2.9,1-.5-1.6-2-.9-4.1.3-1.2.4-2.5,1.8-2.2.8,0,1.8,1,2.6,1.3-.9-1.2,4.1-.8,2.2,0,1.3,2.6,5.1,3.2,6.5,6,1.3,2.8-1,5.9-1.6,8.6,2.1-1.6,4.7-3.8,6-6.1,2-3.5-1.4-5.7-.8-8.9,2.9.8,6.3,1.8,7.9,4.6.9,1.3.8,2.6.5,4.1-.4,2.2-.3,4.5-.9,6.5-.8,3-3.5,4.7-6.5,4.7-2.1.1-4.2-.2-6.3-.2s-2.4,1.1-3.8,2.4c-2.4,2.3-5.7,4.1-8.9,2.9-1.7-.7-2-.1-3.6.8-1.6.9-3.5,1.4-5.2,2-8.2,2.6-16.3,4.7-23.8,8.9-6.4,3.6-12.8,9.1-16.1,15.9-1.7,3.6-2.7,7.8-3.8,11.7-1,4.1-1.4,7.7,0,11.9.4,1.3.8,3.2,2.1,3.8,1.6,1,3.7.2,5.4,0,3.3-.5,7.9-.7,10.7-2.7,2.9-2.3,6.7-3.4,9.9-5.3,3.4-2.1,6.7-4.6,9.4-7.5,1-1.2,2.6-2.8.5-3.6-1.7-.7-3.9.2-5.2,1.2-1.7,1.3-3.2,3.3-4.7,4.8s-2.5,3.4-4.1,3.7c-3.8.8-5-5.5-5.9-7.9-1.4-4.2-2.6-8.8-5-12.5,1.4.3,3.2,1.4,4.7.9,1.1-.4,2.7-2.4,3.2-3.6.5-1.3-.2-4.9.8-5.7.9-.8,3.2,1,3.8,1.4,1.3,1,2.8,2,4,3.2,1.1,1,1.8,2.5,3.2,3.3s2.9.5,4.6.3c2.2-.2,4.4-.3,6.5-.8,3.6-.7,6.7-2.8,8.5-6.1.8-1.4,2.4-8.5,4.8-7.8.7.2,1.2,1.8,1.5,2.4,1.2,2,1.4.9,2.7-.8,1.2-1.4,3-3.2,3.8-4.8.5-1.3-.4-2.2-.7-3.6,3.3-.2,6,2.8,7.1,5.8s1,6.3.8,9.5c.9-1.6,1.6-3.2,2.5-4.8.4-.8,1.1-1.6,1.3-2.5.2-.5,0-1.2.3-1.7.7-1.6,3.9-.9,4.9,0,2.2,2.2-1.7,7.5-2.7,9.7v-.2Z"/>
  <path class="cls-1" d="M82.6,68.5"/>
</svg>